<?xml version="1.0" encoding="UTF-8"?><svg id="Layer_2" xmlns="http://www.w3.org/2000/svg" viewBox="0 0 612.72 612.72"><defs><style>.cls-1{fill:#161663;}.cls-2{fill:#fcfcfc;}</style></defs><g id="Layer_1-2"><rect class="cls-1" width="612.72" height="612.72"/><path class="cls-2" d="M330.04,113.41h27.36c.28,0,.51.22.51.5,0,.16-.08.32-.21.42l-22.13,16.1c-.17.13-.25.35-.19.55l8.46,26.04c.08.27-.08.55-.35.62-.14.04-.3.01-.42-.07l-22.15-16.07c-.18-.13-.42-.13-.6,0l-22.15,16.07c-.23.16-.54.1-.7-.13-.09-.12-.11-.28-.07-.42l8.46-26.04c.06-.21-.02-.43-.19-.55l-22.13-16.1c-.23-.16-.28-.48-.12-.7.1-.13.25-.21.42-.21h27.36c.22,0,.41-.14.47-.35l8.47-26.02c.1-.26.39-.39.65-.3.14.05.25.16.3.3l8.47,26.02c.07.2.26.34.47.35Z"/><path class="cls-2" d="M225.78,130.8l22.38-5.14c.3-.06.59.12.66.42.04.17,0,.35-.12.48l-15.3,17.14c-.16.19-.18.46-.05.66l11.8,19.69c.16.26.07.6-.19.76-.15.09-.34.1-.5.03l-21.03-9.23c-.22-.09-.47-.04-.63.14l-15.09,17.31c-.2.23-.55.25-.78.05-.13-.12-.2-.29-.18-.47l2.28-22.84c.03-.24-.11-.47-.33-.57l-21.12-8.99c-.28-.11-.42-.43-.31-.71.07-.18.22-.31.41-.34l22.45-4.88c.23-.05.4-.25.43-.49l2.03-22.87c.02-.3.29-.53.59-.5.18.01.34.11.43.27l11.58,19.83c.12.21.36.32.6.27Z"/><path class="cls-2" d="M430.35,134.35l22.13,4.74c.31.07.51.38.44.69-.04.18-.16.33-.33.41l-20.73,9.09c-.23.1-.37.33-.35.58l2.33,22.51c.03.32-.2.61-.52.64-.18.02-.37-.05-.49-.18l-15.04-16.9c-.17-.2-.44-.26-.68-.16l-20.68,9.18c-.3.13-.64,0-.77-.3-.07-.17-.06-.36.03-.52l11.44-19.53c.13-.22.1-.51-.08-.69l-15.12-16.84c-.22-.24-.2-.61.03-.82.14-.13.34-.18.53-.14l22.1,4.84c.25.06.5-.05.63-.27l11.34-19.6c.16-.28.52-.38.79-.22.17.09.27.26.29.45l2.24,22.53c.03.25.21.45.46.5Z"/><path class="cls-2" d="M143.44,170.09l17,14.93c.21.18.24.5.05.71-.11.13-.28.19-.45.17l-22.45-2.87c-.23-.03-.45.09-.54.3l-8.95,20.78c-.11.26-.4.38-.66.27-.16-.07-.27-.21-.3-.38l-4.21-22.23c-.04-.22-.22-.39-.44-.41l-22.54-2.1c-.28-.03-.48-.27-.45-.55.02-.17.11-.31.26-.39l19.85-10.87c.2-.11.3-.33.25-.55l-4.98-22.08c-.06-.27.12-.54.39-.6.16-.03.32.01.44.12l16.48,15.52c.16.15.41.18.6.06l19.47-11.55c.24-.14.55-.05.69.19.08.14.09.31.02.46l-9.67,20.46c-.1.21-.05.45.13.6Z"/><path class="cls-2" d="M520.89,167.46l19.09,10.81c.25.15.33.47.18.71-.08.13-.22.23-.37.25l-21.82,2.41c-.22.03-.4.19-.44.41l-4.38,21.5c-.06.28-.34.46-.62.39-.16-.03-.29-.14-.36-.28l-9.03-20.01c-.09-.21-.31-.33-.54-.3l-21.8,2.49c-.29.03-.54-.18-.57-.46-.02-.16.04-.33.16-.44l16.22-14.76c.17-.15.23-.4.13-.61l-9.1-19.96c-.12-.26,0-.57.26-.69.16-.07.34-.06.48.03l19.06,10.87c.19.11.43.08.6-.06l16.18-14.82c.21-.2.54-.19.73.02.12.13.17.3.13.47l-4.46,21.47c-.05.22.05.45.25.57Z"/><ellipse class="cls-2" cx="455.36" cy="124.38" rx=".13" ry=".39" transform="translate(56.9 377.47) rotate(-47.7)"/><path class="cls-2" d="M171.96,320.38c-3.42,2.02-5.73,5.06-6.93,9.13-.66,2.23-1,3.36-1,3.39-.11.26-.41.39-.67.28-.01,0-.03-.01-.04-.02-.96-.51-2.01-1.35-2.87-1.81-34.82-18.17-56.53-29.5-65.13-33.99-8.49-4.44-13.53-7.21-15.14-8.31-8.08-5.6-15.81-14.23-19-23.74-3.1-9.21-4.13-17.75-1.8-27.44.02-.09.11-.15.2-.13.02,0,.05.01.07.03,14.42,9.13,21.72,13.76,21.92,13.89,29.87,18.94,51.53,32.76,64.98,41.45,12.61,8.16,25,15.25,33.42,27.12,3.73,5.26,9.49,14.53,13.49,20.94,3.52,5.65,7.36,8.24,12.59,12.02,5.8,4.18,12.7,5.29,19.99,4.72.71-.06,1.37.33,1.68.97,1.67,3.49,4.02,6.77,7.07,9.82,4.2,4.21,8.91,6.22,14.63,4.83.33-.08.66.13.74.46.04.16,0,.33-.08.47-4.4,6.63-10.18,9.87-17.32,9.72-9.99-.21-14.41-5.95-18.12-14.35-.06-.17-.25-.26-.42-.19-.13.05-.22.18-.21.32-.15,7.16,2.46,12.72,7.85,16.7.81.59,2.92,1.45,4.05,2.27.25.19.43.46.51.77l1.72,6.99c.05.22-.08.43-.3.48-.04,0-.08.01-.13,0-8.57-.74-13.89-7.99-15.14-16.27-.04-.2-.22-.34-.42-.31-.13.02-.23.1-.28.22-1.08,2.68-1.52,5.64-1.3,8.88.01.22-.16.41-.38.42,0,0-.01,0-.02,0-4.84.04-13.51-1.42-16.79-5.68-2.51-3.26-3.9-6.93-4.16-11.02-.03-.49.35-.91.84-.94.17,0,.34.03.48.11,7.73,4.4,14.57,3.3,20.54-3.31.1-.12.08-.3-.04-.4-.08-.06-.18-.08-.27-.05-12.42,4.83-23.82-2.92-23.08-16.36.06-1.18.14-2.28.24-3.32.01-.17-.11-.32-.28-.33-.12-.01-.23.05-.28.15-3.75,6.45-3.73,12.87.07,19.25.11.18.06.41-.12.52-.08.05-.16.07-.25.06-7.27-.83-11.08-3.53-14.69-9.86-2.24-3.92-2-7.98-1.88-12.73,0-.22.19-.4.41-.39.06,0,.12.02.17.04,4.6,2.28,13.63,3.62,17.47-.72.13-.15.12-.38-.03-.51-.08-.07-.19-.1-.29-.08-14.77,2.69-22.46-11.75-15.88-23.83.08-.12.04-.29-.09-.36-.09-.05-.2-.05-.28,0Z"/><path class="cls-2" d="M554.4,238.71c1.75,5.69,1.89,11.66.42,17.91-1.68,7.17-3.55,13.66-7.46,19.15-6.32,8.86-14.64,14.1-24.77,19.38-26.76,13.96-47.32,24.73-61.67,32.3-3.73,1.97-7.55,3.91-11.46,5.8-.22.1-.49.01-.59-.21-.03-.06-.04-.12-.04-.19,0-.24.01-.61.04-1.11.24-3.44-4.58-9.55-7.16-11.97-.12-.12-.31-.12-.43,0-.08.08-.11.21-.07.32,1.47,5.11,2.19,7.46,2.32,11.7.26,7.99-8.27,13.86-15.66,13.12-.85-.08-1.87-.22-3.06-.41-.15-.04-.31.06-.34.21-.03.12.03.25.14.31,5.96,3.95,11.89,4.03,17.81.23.24-.15.55-.08.7.16.04.06.06.12.07.19,1.87,11.39-4.11,22.04-16.11,23.42-.3.04-.56-.17-.6-.47-.02-.12.01-.24.07-.35,3.89-6.61,3.59-13.03-.91-19.26-.06-.1-.19-.13-.29-.07-.09.05-.12.16-.09.25,2.07,8.72-.58,17.33-9.77,20.31-4.17,1.35-8.36,1.18-12.57-.52-.17-.07-.37.01-.44.18-.05.12-.03.26.06.36,4.12,4.85,9.21,6.66,15.26,5.43,2.01-.41,3.93-1.47,6.04-2.43.35-.16.76,0,.93.35.06.13.08.27.06.41-1.96,11.64-9.05,17.38-21.28,17.22-.35,0-.64-.27-.69-.61l-1.37-10.04c-.02-.13-.15-.22-.28-.2-.1.02-.17.09-.2.18-.92,3.65-1.48,5.79-1.69,6.41-1.93,5.63-7.14,12.11-13.62,11.2-.31-.04-.52-.33-.48-.63,0-.05.02-.1.04-.15.82-1.86,1.29-4.12,1.43-6.79.03-.4.27-.74.63-.9,4.34-1.85,7.92-4.1,10.01-8.45,1.73-3.61,2.44-7.26,2.13-10.94-.03-.21-.23-.36-.44-.33-.15.02-.28.13-.32.27-2.51,9.66-8.84,14.59-18.98,14.79-6.66.14-12.14-5.02-15.79-10.16-.13-.17-.1-.42.07-.55.08-.06.19-.09.3-.08,10.42,1.4,18.34-5.09,21.42-14.58.15-.45.55-.76,1.02-.78l9.3-.45c8.85-2.12,16.05-6.44,21.59-12.95,1.33-1.56,3.58-4.94,6.75-10.15,3.81-6.29,7.5-13.16,12.29-18.54,4.82-5.41,10.72-10.36,17.69-14.86,36.68-23.65,68.13-43.71,94.34-60.18,1.63-1.02,3.28-2.07,4.94-3.14.38.16.62.45.73.88Z"/><path class="cls-2" d="M446.05,247.99l-.25,4.53c0,.07-.06.12-.13.13-.07,0-.12-.05-.12-.12-.17-1.49-.12-2.99.16-4.52.11,0,.23-.01.34-.02Z"/><path class="cls-2" d="M373.64,269.72c-4.14-2.72-8.08-2.92-11.82-.61-11.63,7.17-17.68,24.01-18.87,36.79-.67,7.32.32,14.12,2.96,20.4,6.45,15.36,20.62,26.29,36.06,31.4.4.14.61.57.47.97-.02.05-.04.11-.07.15-4.69,7.52-13.82,12.62-22.29,7.01-6.19-4.1-11.28-9.3-15.28-15.6-.08-.13-.25-.17-.39-.1h-.02c-.13.07-.18.23-.12.37,3.96,9.04,9.61,16.47,16.93,22.29.32.26.41.7.21,1.07-1.84,3.41-4.61,7.1-8.27,9.01-.31.16-.66.23-1.01.18-5.48-.73-12.56-11.4-15.07-16.15-5.32-10.03-9.17-20.86-11.55-32.49-.02-.15-.15-.26-.31-.24s-.26.15-.24.31h0c.4,18.42,5.77,35.12,16.1,50.12,1.87,2.74,4.25,4.8,6.86,6.92.33.27.39.74.15,1.09-4.44,6.37-10.53,10.13-18.7,9.12-11.41-1.43-17.38-10.63-20.24-21-.48-1.74-.82-2.85-1.04-3.33-.05-.13-.2-.19-.33-.14-.09.04-.14.12-.15.21-1.85,13.24-10.73,24.52-24.85,24.36-6.62-.08-11.55-2.81-15.04-8.12-.5-.75-.3-1.76.44-2.26,1.67-1.13,3.25-2.64,4.75-4.53,12.26-15.39,18.29-33.05,18.1-52.99,0-.04-.02-.07-.06-.07s-.07.02-.07.06c-1.37,7.96-3.71,15.72-7.01,23.26-4.33,9.9-8.86,18.52-16.76,25-.84.68-2,1.1-3.5,1.25-.43.04-.86-.04-1.25-.23-3.76-1.87-6.49-5.01-8.2-9.42-.15-.4-.02-.85.32-1.11,7.65-5.81,13.44-13.06,17.39-21.74.06-.13,0-.29-.12-.36h-.01c-.11-.07-.26-.03-.33.07-3.97,5.84-9.05,10.78-15.24,14.83-5.68,3.71-11.39,3.69-17.13-.06-2.04-1.34-4.41-3.92-7.11-7.75,7.35-1.15,14.61-3.51,21.79-7.07,14.59-7.22,26.24-18.82,30.71-34.57,2.17-7.66,2.83-15.45,2-23.39-.04-.36-.36-.61-.72-.58-10.28.79-17.45-3.41-21.52-12.58-.07-.17,0-.36.17-.43.06-.03.13-.03.19-.02,18.55,3.43,29.48-10.91,43.34-19.72,5.84-3.72,19.8-9.52,26.69-4.92,1.73,1.15,3.16,2.49,4.28,3.99.26.35.75.45,1.13.22,5.78-3.52,19.14-8.91,25.71-5.33,3.77,2.04,6.44,4.83,8.01,8.37,1.49,3.37,1.46,6.08-.08,8.12ZM320.99,274.99c3.51-3.01,5.95-5.25,7.32-6.71,2.25-2.37,4.88-4.36,7.9-5.95.29-.16.39-.51.24-.8-.09-.16-.25-.28-.43-.3-2.21-.27-4.5-.19-6.88.25-3.76.71-4.71,3.35-5.6,7.11-.46,1.97-1.47,3.95-3.03,5.94-.13.13-.12.34.01.46s.34.12.46-.01Z"/><path class="cls-2" d="M164.99,353.07c-.01.15-.15.25-.3.24-.02,0-.04,0-.06-.01-6.43-2.41-13.89-4.98-22.37-7.7-14.47-4.64-28.88-9.25-43.26-13.84-3.62-1.15-5.54-1.76-5.77-1.83-19.52-5.77-34.99-20.4-35.84-41.82-.01-.35.26-.64.61-.65.1,0,.2.02.3.06l105.83,49.75c.42.2.77.52,1,.92l2.64,4.57c.31.54.31,1.2,0,1.73-1.6,2.82-2.52,5.68-2.78,8.58Z"/><path class="cls-2" d="M448.38,353.26c-.25-2.9-1.18-5.77-2.79-8.6-.31-.54-.31-1.2,0-1.74l2.65-4.58c.23-.41.58-.73,1-.93l106.13-49.97c.32-.15.69-.02.85.3.05.1.07.2.06.31-.85,21.49-16.35,36.17-35.93,41.97-.23.06-2.15.68-5.79,1.84-14.42,4.61-28.88,9.24-43.38,13.9-8.51,2.74-15.99,5.32-22.44,7.73-.14.05-.3-.01-.35-.15,0-.02-.01-.05-.02-.07Z"/><path class="cls-2" d="M172.06,369.9c-.45.09-1.11.07-1.99-.05-26.73-3.85-47.33-6.74-61.79-8.67-1.68-.23-5.83-.91-12.45-2.06-15.58-2.71-29.83-13.36-33.82-29.22-.08-.29.1-.58.39-.66.09-.02.19-.02.28,0l101.33,27.11c.69.19,1.22.75,1.35,1.46.82,4.25,3.11,8.11,6.86,11.59.12.11.13.3.01.42-.04.05-.1.08-.16.09Z"/><path class="cls-2" d="M441.61,369.63c3.04-3.63,5.61-6.87,6.04-11.76.06-.71.57-1.3,1.26-1.47,5.87-1.44,16.45-4.23,31.73-8.38,40.05-10.87,61.77-16.7,65.17-17.49,1.71-.4,3.72-.67,5.41-.97.13-.02.26.06.28.19,0,.03,0,.05,0,.08-1.92,13.35-13.83,23.1-25.89,27.28-1.68.58-5.77,1.5-12.27,2.77-4.04.79-8.2,1.46-12.49,2.01-17.66,2.25-37.31,5-58.96,8.25-.17.02-.33-.1-.36-.27-.01-.09.01-.17.07-.24Z"/><path class="cls-2" d="M188.9,386.92c-19.23.8-40.12,1.98-62.67,3.55-5.85.41-10.88.43-15.07.06-13.8-1.2-24.26-7.57-31.37-19.09-1.06-1.73-1.82-3.6-2.27-5.61-.08-.35.15-.7.5-.78.06-.01.13-.02.2-.01l106.82,9.78c.24.02.43.22.43.46-.04,4.07,1.2,7.75,3.72,11.05.12.16.1.38-.06.5-.06.05-.14.08-.21.08Z"/><path class="cls-2" d="M424.61,386.85c-.2-.01-.36-.19-.35-.39,0-.07.03-.14.07-.2,2.52-3.3,3.77-6.98,3.74-11.06,0-.24.19-.45.43-.46l107.02-9.66c.36-.03.68.23.71.6,0,.07,0,.13-.01.2-.45,2.01-1.21,3.88-2.28,5.61-7.14,11.54-17.63,17.9-31.46,19.09-4.2.36-9.24.33-15.1-.08-22.59-1.61-43.52-2.82-62.78-3.64Z"/><path class="cls-2" d="M230.42,389.89c9.23-.38,15.32-2.95,20.39-10.72.13-.19.39-.24.59-.11.06.04.11.1.14.16,2.77,5.82,5.49,10.22,12.01,12.38.25.08.39.35.31.6-.02.05-.04.1-.07.14-5.94,8.1-16.52,12.15-25.79,7.13-4.07-2.2-6.74-5.19-8.01-8.96-.08-.25.05-.52.3-.6.04-.01.09-.02.13-.02Z"/><path class="cls-2" d="M383.71,389.54c.23-.02.44.16.45.39,0,.05,0,.11-.02.16-1.13,3.79-3.39,6.66-6.78,8.6-7.61,4.35-15.09,3.98-22.46-1.13-1.56-1.09-2.78-2.5-3.65-4.24-.31-.6-.12-1.34.44-1.72l6.11-4.14c.25-.17.47-.4.64-.65l4.46-6.79c.17-.25.51-.32.76-.16.06.04.12.1.16.16,4.61,6.99,11.24,10.17,19.89,9.53Z"/><path class="cls-2" d="M247.65,412.24c-.06.13-.13.43-.19.89-.04.3-.2.58-.48.85-2.46,2.44-5.5,4.3-9.11,5.58-9.53,3.37-16.54.61-21.04-8.27-.33-.65-.26-1.42.18-1.99l2.52-3.25c.09-.09.09-.23,0-.32-.09-.09-.23-.09-.32,0h0l-3.1,2.47c-.11.09-.24.16-.38.21-11.73,4.48-18.8-2.32-22.29-12.71-.09-.27-.38-.41-.64-.32-.18.06-.31.22-.34.41l-.71,5.05c-.05.36-.32.64-.68.71-1.38.27-13.71,3.61-36.99,10.01-6.74,1.86-12.76,3.06-19.97,4.66-6.7,1.48-13.54,1.16-20.54-.95-7.12-2.15-15.05-8.12-17.1-15.96-.06-.23.08-.47.31-.53.04,0,.08-.01.12-.01,2.77.11,5.24.06,7.38-.15,19.59-1.87,32.97-3.12,40.14-3.73,15.22-1.29,33.86-4,47.01-4.86.63-.04,1.43.26,2.42.9,4.96,3.24,11.28,3.29,16.6.85.32-.15.7-.01.87.31,2.93,5.66,8.88,10.81,15.54,11.03,2.49.08,4.19.18,5.1.32.52.07,1.01.25,1.45.52,5.38,3.27,10.19,4.76,14.43,4.49,3.73-.25,7.86-1.92,12.39-5.03.95-.65,3.07-3.55,4.33-4.58.25-.2.62-.16.82.09.02.03.04.06.06.09,2.61,5.04,7.16,8.35,13.64,9.93.55.13.89.69.75,1.24-.02.06-.04.13-.07.19-5.77,12.66-24.26,13.69-31.42,1.84-.11-.19-.36-.25-.55-.14-.07.04-.13.11-.16.18Z"/><path class="cls-2" d="M393.54,405.47l2.7,3.26c.62.74.75,1.77.33,2.63-4.07,8.39-10.67,11.17-19.81,8.35-3.13-.96-6.61-3.38-10.45-7.24-.2-.2-.52-.2-.73-.01-.05.05-.73.8-2.04,2.24-1.84,2.03-4.25,3.59-7.25,4.69-7.34,2.7-13.83,1.14-19.49-4.66-1.28-1.32-2.23-2.64-2.84-3.98-.17-.38,0-.82.37-1,.01,0,.03-.01.04-.02,5.65-2.07,11.73-4.62,13.92-11.12.09-.29.4-.45.69-.35.11.04.2.1.27.19,2.05,2.66,4.19,5.33,6.97,6.89,8.37,4.7,16.65,4.14,24.84-1.68.5-.35,1.11-.52,1.72-.46,9,.83,15.36-2.89,19.09-11.18.13-.3.48-.43.78-.3,5.96,2.65,11.92,2.22,17.85-1.29.33-.19.71-.3,1.1-.32,1.82-.05,4.06.09,6.73.41,30.54,3.68,59.91,6.52,88.11,8.54.31.02.54.29.52.6,0,.02,0,.04,0,.06-2.02,10.32-14.87,16.33-24.44,17-5.94.41-10.54.23-13.81-.53-16.97-3.98-27.86-7.23-56.14-14.78-.33-.09-.58-.35-.65-.68l-1.43-5.81c-.06-.23-.31-.38-.54-.32-.16.04-.29.17-.32.34-1.83,10.61-10.93,17.77-21.56,13.51-.74-.3-2.12-1.42-4.14-3.38-.11-.1-.29-.1-.4,0v.02c-.09.11-.08.26,0,.36Z"/><path class="cls-2" d="M284.2,410.2c-.12-.29.01-.62.3-.75.07-.03.14-.04.21-.04,10.75-.35,17.02-5.21,23.05-13.63.16-.21.45-.25.67-.1.06.04.1.1.14.16,4.45,8.52,11.18,11.95,20.45,13.67.56.1.92.64.82,1.19-.02.1-.05.19-.09.27-5.08,10.06-13.44,14.73-25.08,14.01-9.82-.62-16.64-5.55-20.47-14.79Z"/><path class="cls-2" d="M201.33,413.12c.13.06.18.21.11.34-.02.05-.06.09-.11.11-14.25,7.7-25.88,13.91-34.87,18.61-16.12,8.42-32.69,10.32-45.83-4.14-.09-.09-.09-.24,0-.33.03-.03.07-.05.11-.06,5.75-1.36,11.56-2.94,17.42-4.75,22.71-6.99,40.86-12.67,54.43-17.04.44-.14.92.03,1.17.42,1.89,2.92,4.42,5.2,7.56,6.83Z"/><path class="cls-2" d="M412.1,412.99c3.16-1.64,5.7-3.93,7.61-6.88.26-.39.74-.57,1.18-.42,13.66,4.41,31.91,10.13,54.75,17.17,5.89,1.82,11.73,3.41,17.51,4.79.13.03.21.15.18.28,0,.04-.03.08-.06.11-13.22,14.55-29.9,12.62-46.1,4.15-9.05-4.74-20.74-10.99-35.07-18.74-.13-.07-.17-.23-.1-.36.02-.04.06-.08.1-.1Z"/><path class="cls-2" d="M205.48,418.04c-1.46,1.46-2.04,4.02-1.75,7.7.06.77-.25,1.52-.83,2.03-8.39,7.12-17.97,16.92-28.98,23.63-6.94,4.24-17.81,5.3-24.66-.13-.23-.19-.27-.52-.09-.75.04-.05.08-.08.13-.11l56.09-35.13c.23-.15.48-.27.73-.37l9.31-3.63c.07-.02.14,0,.16.08,0,.02,0,.04,0,.06-1.18,7.76,4.33,10.61,9.85,14.23.43.28.73.72.85,1.23.42,1.83.75,3.21,1,4.14,1.37,4.9,6.01,8.73,10.68,10.56.31.12.46.47.34.78-.01.03-.03.06-.04.08-5.2,8.84-7.94,13.46-8.21,13.87-3.6,5.37-10.19,11.45-16.62,13.2-3.01.82-6.68.99-11,.51-.1,0-.17-.1-.16-.2,0-.03.01-.06.03-.09,5.77-8.63,11.24-18.07,16.39-28.32.06-.13.22-.19.35-.12.05.02.09.06.11.1,3.73,6.06,10.51,10.05,16.15,3.27.12-.14.1-.34-.04-.46-.08-.07-.19-.1-.29-.08-2.5.57-5.14.48-7.92-.27-7.01-1.89-6.67-7.05-7.94-13.08-.07-.32-.36-.56-.69-.55-.25,0-.73.06-1.44.15-7.16.96-11.46-2.76-11.43-9.87,0-.69.42-1.67.43-2.24,0-.18-.15-.31-.32-.31-.08,0-.16.03-.22.09Z"/><path class="cls-2" d="M394.69,432.63c-1.8,5.46-1.98,10.13-8.69,11.4-2.72.51-5.25.4-7.61-.33-.26-.07-.53.07-.6.33-.03.1-.03.21.01.3.43,1.12,2.26,2.66,3.48,3.07,5.4,1.84,9.65.15,12.74-5.07.14-.24.45-.32.7-.18.08.05.15.12.2.21,4.73,9.2,10.08,18.12,16.07,26.77.19.27.12.64-.15.83-.08.05-.17.09-.26.1-11.79,1.64-21.71-5.65-27.39-14.7-2.72-4.34-5.23-8.53-7.54-12.58-.28-.49-.1-1.11.38-1.38.04-.02.07-.04.11-.05,5.97-2.44,11.21-7.71,11.38-14.72.01-.59.37-1.12.91-1.36,4.85-2.13,10.36-7.19,10.61-12.96.02-.24.23-.43.47-.41.08,0,.15.03.21.07,1.08.74,3.11,1.44,6.08,2.09.8.17,1.55.5,2.23.95,9.53,6.43,16.86,11.18,21.99,14.24,12.18,7.28,21.7,13.25,28.56,17.92,1.33.91,3.28,1.98,5.85,3.21.31.15.45.53.3.84-.06.12-.15.22-.27.28-7.89,4.25-15.83,4.3-23.81.15-3.75-1.95-8.04-4.99-12.85-9.13-8.96-7.69-14.9-12.88-17.83-15.56-.27-.24-.4-.61-.34-.96.44-2.63.23-5.08-.61-7.34-.07-.2-.29-.3-.48-.24-.16.05-.26.21-.26.37.13,8.94-4.04,12.79-12.5,11.52-.29-.05-.57.15-.61.45-.03.19.04.37.18.5,3.44,3.02,6.96,3.17,10.58.44.5-.38,1.11-.82,1.84-1.31.27-.18.63-.13.85.12,3.91,4.49,8.96,9.91,15.17,16.25,5.31,5.43,10.33,10.9,16.11,15.34.28.22.33.63.11.9-.04.05-.09.1-.15.14-7.26,4.74-16.88,3.37-23.18-1.49-1.56-1.2-3.72-3.76-6.48-7.67-6.48-9.18-11.45-16.33-14.91-21.43-.11-.16-.33-.19-.49-.08-.06.04-.1.1-.13.17Z"/><path class="cls-2" d="M257.65,430.09c-9.05,8.78-21.68,9.05-28.38-2.93-.16-.28-.06-.63.22-.79.09-.05.19-.08.3-.07,5.75.09,10.38-2,13.91-6.27,1.78-2.15,3.02-3.9,3.73-5.26.08-.16.27-.23.44-.15.09.04.15.12.18.22,1.95,6.88,6.34,10.79,13.64,11.57,7.95.86,14.33-2.18,19.15-9.12.16-.22.46-.27.68-.11.07.05.12.11.16.19,2.77,5.89,7.2,9.87,13.31,11.96.4.14.63.56.51.97-1.2,4.16-3.87,7.14-8.03,8.95-9.74,4.23-17.7,2.36-23.87-5.62-.95-1.23-1.47-2.89-2.24-3.59-.14-.13-.36-.12-.49.03-.06.07-.09.15-.09.24.23,8.98,4.8,14.55,13.71,16.71.3.07.49.37.41.68-.02.09-.07.17-.13.24-10.87,11.85-27.95,9.89-34.57-5.27-.1-.22,0-.49.23-.59.06-.03.12-.04.19-.04,8.49.11,14.27-3.8,17.36-11.74.04-.09-.01-.2-.1-.23-.07-.03-.14,0-.19.04Z"/><path class="cls-2" d="M355.78,430.04c2.55,8.03,8.28,12.03,17.2,12.01.25,0,.44.2.45.45,0,.06-.01.12-.03.17-4.03,9.63-11.17,13.83-21.42,12.62-5.04-.59-9.21-3.04-12.5-7.33-.19-.23-.14-.57.09-.76.05-.04.11-.07.18-.09,8.22-2.57,13.53-8.1,13.37-17.02,0-.13-.11-.24-.24-.24-.08,0-.15.04-.19.1-4.83,6.88-9.5,11.55-18.39,11.42-7.97-.12-13.05-4.54-16.46-11.12-.18-.34-.05-.76.29-.94.05-.03.1-.04.15-.06,6.69-1.72,11.36-5.82,14-12.32.1-.24.37-.35.61-.26.09.04.17.1.22.18,7.55,12.13,28.32,14.62,32.66-2.07.06-.22.28-.35.5-.3.13.03.23.12.28.25,3.13,7.57,9.06,11.42,17.79,11.55.17,0,.3.14.3.31,0,.04,0,.08-.03.12-4.85,10.49-16.69,13.04-25.45,5.51-1.73-1.49-2.72-2.32-2.97-2.5-.12-.09-.28-.06-.37.06-.05.07-.07.16-.04.25Z"/><path class="cls-2" d="M217.77,432.09c.12-.09.29-.06.38.05.07.09.07.21,0,.31-5.13,7.97-9.44,14.53-12.91,19.68-1.75,2.6-3.87,5.31-6.37,8.13-5.58,6.29-16.85,7.41-24.52,3.35-.4-.21-.54-.71-.33-1.1.04-.07.09-.14.15-.2,10.69-10.24,20.91-20.88,30.65-31.92.21-.23.56-.25.79-.05.28.25,1.03.83,2.25,1.72,3.39,2.49,6.69,2.5,9.9.03Z"/><path class="cls-2" d="M319.75,441.75c-5.25,8.72-14.8,14.22-22.73,4.57-1.42-1.73-2.42-3.43-3-5.09-.14-.38-.05-.81.23-1.1,2.27-2.39,4.25-5.4,5.93-9.02.18-.39.61-.61,1.04-.53,3.88.72,7.67.7,11.38-.06.44-.09.87.18.98.61.97,3.69,2.97,6.86,6,9.52.32.27.4.74.18,1.1Z"/><path class="cls-2" d="M291.71,442.31c.14-.14.37-.14.51,0,.06.06.1.15.1.23.53,5.94,3.53,10.37,9,13.28,1.2.63,2.52.9,3.98.8.25-.02.47.17.49.42,0,.1-.02.21-.08.29-5.16,7.26-10.01,12.81-19.66,11.66-6.73-.8-11.67-4.57-14.8-11.31-.15-.33-.07-.72.2-.96,2.96-2.68,5.31-5.56,7.07-8.64.37-.65,1.06-1.06,1.81-1.08,4.57-.12,8.37-1.68,11.39-4.69Z"/><path class="cls-2" d="M323.06,443.31c4,3.08,7.98,4.55,11.94,4.38.25-.01.49.11.64.32l6.25,8.7c.39.54.43,1.26.12,1.85-4.04,7.64-10.18,11.05-18.43,10.24-6.88-.69-11.88-4.87-15.21-10.64-.24-.41-.1-.94.31-1.19.07-.04.15-.07.23-.09,7.22-1.82,10.66-6.63,13.29-13.33.11-.29.43-.43.72-.32.05.02.1.05.14.08Z"/><path class="cls-2" d="M251.14,460.24c2.13.44,3.29.68,3.45.71,5.73,1.04,10.73.12,15-2.76.17-.12.41-.08.53.1.04.06.07.13.07.21.35,6.3,3.45,10.95,9.31,13.93.2.1.28.34.18.54-.04.08-.1.14-.18.18-9.39,4.83-20.88,2.79-26.35-7-1.39-2.48-2.26-4.21-2.62-5.21-.1-.27.04-.58.32-.68.09-.03.19-.04.29-.02Z"/><path class="cls-2" d="M362.97,460.7c-1.58,3.79-3.13,6.56-4.63,8.3-4.49,5.26-10.45,7.39-17.91,6.39-2.79-.37-4.79-1.11-5.99-2.22-.19-.17-.2-.46-.02-.65.04-.04.09-.08.14-.1,5.56-2.72,8.81-7.17,9.77-13.35.04-.27.29-.46.56-.42.06,0,.12.03.18.06,5.35,2.99,11.16,3.48,17.42,1.47.2-.07.42.04.48.24.03.09.03.19,0,.28Z"/><path class="cls-2" d="M286.36,474.89c8.51.34,15.12-3.21,19.81-10.65.09-.15.3-.2.46-.1.03.02.06.04.08.07l4.94,6.2c.13.17.15.39.04.57-4.81,8.6-16.05,12.7-24.2,6.31-.62-.49-1.12-1.08-1.51-1.77-.11-.2-.04-.46.16-.57.07-.04.14-.06.22-.05Z"/><path class="cls-2" d="M327.93,475.71c-.08,4.76-2.11,8.39-6.07,10.9-.42.26-.92.34-1.38.21-3.63-.99-6.2-3.21-7.72-6.69-1.16-2.63.8-5.35,2.46-7.04.36-.36.9-.47,1.37-.27,3.7,1.54,7.21,2.24,10.53,2.1.43-.02.79.3.81.73,0,.02,0,.04,0,.05Z"/><path class="cls-2" d="M331.98,475.15c4.12,3.93,9.11,5.91,14.96,5.93.16,0,.28.13.28.29,0,.03,0,.06-.02.09-3.11,8.6-12.17,15.04-20.81,8.79-.38-.27-.46-.8-.19-1.18.03-.03.05-.07.08-.1,3.82-3.83,5.54-8.36,5.18-13.57-.01-.17.11-.32.28-.33.09,0,.17.02.23.08Z"/><path class="cls-2" d="M295.52,485.75c.11.02.19.13.17.25,0,.05-.03.09-.07.12-5.32,4.71-11.45,6.32-18.39,4.84-5.21-1.11-8.86-4.26-10.94-9.45-.13-.33.04-.71.37-.83.06-.02.13-.04.19-.04,3.83-.2,7.58-1.65,11.26-4.35.32-.24.77-.17,1.01.15.02.02.03.04.05.07,3.72,6.35,9.2,7.93,16.36,9.25Z"/><path class="cls-2" d="M292.52,492.32c.86-.83,3.56-1.9,4.98-3.04,3.38-2.74,5.93-5.57,9.9-8.26.28-.19.66-.11.85.18.02.04.04.08.06.12,2.3,6.12,6.6,8.91,12.9,8.37.19-.01.36.13.37.32,0,.08-.01.15-.06.22-6.4,9.6-14.99,11.6-25.75,5.99-.31-.16-1.39-1.17-3.24-3.03-.24-.23-.24-.62,0-.85,0,0,0,0,0,0Z"/><path class="cls-2" d="M346.99,515.05c1.27,1.84,2.89,3.41,4.85,4.7.15.09.2.28.11.43-.07.12-.21.18-.34.15-6.3-1.15-11.12-4.45-14.46-9.92-2.66-3.86-4.81-8.1-6.45-12.73-.09-.25.03-.52.29-.61.04-.02.09-.03.14-.03,6.51-.36,12.47-1.46,16.27-7.16.04-.05.06-.1.08-.15l1.88-4.63c.09-.22.34-.32.56-.23.05.02.1.05.14.09l4.47,4.47c.23.23.23.6,0,.84-.07.07-.15.12-.24.15-5.41,1.72-8.06,5.09-9.89,10.14-1.8,4.98-.94,9.81,2.6,14.49Z"/><path class="cls-2" d="M277.79,513.55c-3.32,3.42-7.26,5.51-11.84,6.26-.17.03-.32-.09-.35-.26-.01-.09.01-.18.07-.25,5.84-6.63,10.46-12.29,6.22-21.45-1.44-3.12-3.87-5.35-7.29-6.7l-1.8-.82c-.28-.13-.4-.45-.27-.73,0-.02.02-.04.03-.05l1.9-3.15c.16-.27.51-.36.79-.19.08.05.16.12.2.21,4.32,7.75,14.56,10.24,22.47,7.84.26-.09.55-.03.77.14l6.57,5.09c.35.27.46.75.26,1.15-2.55,4.99-7.04,5.43-12.42,6.12-.76.1-1.41.59-1.71,1.29-.83,1.92-2.04,3.75-3.61,5.5Z"/><path class="cls-2" d="M312.08,518.98l-4.27,7.02c-1.04-3.59-2.38-6.45-4.01-8.59-1.71-2.23-3.82-4.42-6.32-6.55-.59-.51-1.13-1.46-1.62-2.86-.12-.37-.05-.78.19-1.08l3.61-4.67c.29-.38.77-.54,1.23-.41,7.79,2.15,14.52-.06,20.2-6.63.52-.61,1.43-.68,2.04-.16.09.08.17.17.24.26l3.23,4.5c.71.99.73,2.32.04,3.33-2.41,3.56-3.97,5.56-4.69,5.99-4.06,2.43-7.35,5.71-9.88,9.85Z"/></g></svg>