<?xml version="1.0" encoding="UTF-8"?><svg id="Layer_2" xmlns="http://www.w3.org/2000/svg" xmlns:xlink="http://www.w3.org/1999/xlink" viewBox="0 0 196.18 196.18"><defs><style>.cls-1{fill:url(#linear-gradient);}</style><linearGradient id="linear-gradient" x1="0" y1="98.09" x2="196.18" y2="98.09" gradientUnits="userSpaceOnUse"><stop offset="0" stop-color="#d08c00"/><stop offset="1" stop-color="#628acf"/></linearGradient></defs><g id="graphics"><path class="cls-1" d="M167.45,28.73c-38.31-38.31-100.42-38.31-138.72,0C.3,57.16-7.03,98.69,6.73,133.87l6.99-6.99c9.58-9.58,23.57-13.02,36.51-8.98,4.13,1.29.52.19,20.85,6.37,16.27,3.74,32.82-.38,47.41-14.98,13.81-13.81,14.81-26.57,15.79-47.14-22.28.65-33.93,2.05-49.27,17.39-8.59,8.59-13.62,19.7-14.6,31.32l-16.47-4.79c2.25-16.48,9.43-28.84,20.75-40.16,22.49-22.49,45.66-20.02,77.46-21.38-2.11,39.18-.3,55.37-23.56,78.63-13.95,13.95-33.06,20.73-52.18,19.07-23.06-5.27-16.44-3.52-31.23-8.15-6.9-2.16-14.36-.32-19.47,4.79l-10.97,10.97c7.69,12.37,18.43,23.42,31.61,31.61l10.46-10.46c4.65-4.65,6.58-11.23,5.27-17.57l17.35,3.36c.28,17.25-10.26,25.81-17.12,32.67,35.19,13.76,76.72,6.44,105.14-21.99,38.31-38.31,38.31-100.42,0-138.72Z"/></g></svg>