<?xml version="1.0" encoding="UTF-8"?><svg id="Layer_2" width="100%" height="100%" preserveAspectRatio="xMidYMid meet" xmlns="http://www.w3.org/2000/svg" viewBox="0 0 2956.04 398.69"><g id="Layer_1-2" fill="currentColor"><path fill="currentColor" d="M413.58,23.1h23.68c.24,0,.44.19.44.43,0,.14-.07.28-.18.36l-19.15,13.93c-.15.11-.22.3-.16.48l7.32,22.53c.07.23-.07.47-.3.54-.13.04-.26.01-.37-.06l-19.17-13.9c-.15-.11-.36-.11-.52,0l-19.17,13.9c-.2.14-.47.09-.61-.11-.07-.11-.1-.24-.06-.37l7.32-22.53c.05-.18-.01-.37-.16-.48l-19.15-13.93c-.2-.14-.24-.41-.1-.61.08-.12.22-.18.36-.18h23.68c.19,0,.35-.12.41-.3l7.33-22.52c.08-.23.33-.34.56-.26.12.04.21.14.26.26l7.33,22.52c.06.18.22.3.41.3Z"/><path fill="currentColor" d="M323.35,38.15l19.37-4.44c.26-.06.51.11.57.36.03.15,0,.3-.1.41l-13.24,14.83c-.14.16-.16.39-.04.57l10.21,17.04c.13.23.06.52-.17.65-.13.08-.29.09-.43.03l-18.2-7.99c-.19-.08-.41-.03-.55.12l-13.06,14.98c-.17.2-.48.22-.67.04-.12-.1-.17-.26-.16-.41l1.98-19.77c.02-.21-.09-.41-.29-.49l-18.28-7.78c-.25-.1-.37-.37-.27-.62.06-.15.19-.26.35-.3l19.43-4.23c.2-.05.35-.22.37-.42l1.76-19.79c.02-.26.25-.46.51-.44.15.01.29.1.37.23l10.02,17.16c.1.18.31.28.52.23Z"/><path fill="currentColor" d="M500.38,41.22l19.15,4.1c.27.06.44.33.38.6-.03.16-.14.29-.29.35l-17.94,7.87c-.2.09-.32.29-.3.5l2.02,19.48c.03.28-.17.53-.45.55-.16.02-.32-.04-.42-.16l-13.02-14.63c-.14-.17-.38-.23-.59-.14l-17.9,7.95c-.26.11-.55,0-.66-.26-.06-.14-.05-.31.02-.45l9.9-16.9c.11-.19.08-.44-.07-.6l-13.09-14.57c-.19-.2-.18-.52.03-.71.12-.11.3-.16.46-.12l19.13,4.18c.21.05.43-.04.55-.23l9.81-16.96c.14-.24.45-.33.69-.19.14.08.24.23.25.39l1.94,19.49c.02.22.18.39.4.44Z"/><path fill="currentColor" d="M252.09,72.15l14.71,12.92c.18.16.2.43.05.62-.1.11-.24.17-.39.15l-19.43-2.48c-.2-.03-.39.08-.46.26l-7.74,17.98c-.09.22-.35.33-.57.23-.14-.06-.23-.18-.26-.33l-3.64-19.23c-.03-.19-.19-.33-.38-.35l-19.51-1.81c-.24-.02-.41-.24-.39-.48.01-.14.1-.27.23-.34l17.18-9.41c.17-.09.26-.29.22-.48l-4.31-19.11c-.05-.24.1-.47.34-.52.14-.03.28.01.38.11l14.26,13.43c.14.13.35.15.52.05l16.85-9.99c.21-.12.48-.05.59.16.07.12.08.27.02.4l-8.37,17.71c-.08.18-.04.39.11.52Z"/><path fill="currentColor" d="M578.74,69.87l16.52,9.35c.21.13.28.4.16.62-.07.12-.19.2-.32.21l-18.88,2.09c-.19.02-.34.17-.38.35l-3.79,18.61c-.05.24-.29.4-.54.34-.14-.03-.25-.12-.31-.25l-7.81-17.31c-.08-.18-.27-.28-.46-.26l-18.87,2.15c-.25.03-.47-.15-.5-.4-.02-.14.04-.28.14-.38l14.04-12.77c.15-.13.2-.35.11-.53l-7.88-17.27c-.1-.23,0-.49.22-.6.13-.06.29-.05.42.02l16.49,9.41c.17.09.37.07.52-.05l14-12.83c.18-.17.46-.16.64.02.1.11.15.26.11.41l-3.86,18.58c-.04.19.05.39.22.49Z"/><ellipse fill="currentColor" cx="522.02" cy="32.6" rx=".11" ry=".34" transform="translate(146.59 396.76) rotate(-47.7)"/><path fill="currentColor" d="M173.02,169c.01.16-.1.29-.26.3-.05,0-.1,0-.15-.03-33.25-17.71-65.91-34.4-99.22-51.68-1.64-.85-3.66-2.32-6.05-4.42-10.55-9.27-19.43-22.03-21.34-36.43-.02-.2.12-.38.32-.4.08,0,.16,0,.23.05l124.09,74.79c.56.34.93.93.99,1.58l1.4,16.24Z"/><path fill="currentColor" d="M709.86,119.44l-95.55,49.95c-.22.12-.49.03-.61-.18-.04-.08-.06-.16-.05-.25l1.12-16.82,55.99-33.74,7.34-4.4,19.88-12.07,7.3-4.38,7.12-4.25,17.74-10.77,9.54-5.88c.25-.15.58-.07.73.18.06.1.09.21.08.33-.69,7.41-3.09,14.26-7.21,20.54-6.09,9.29-13.9,16.53-23.44,21.74ZM737.6,83.1c.28-.46.14-1.06-.32-1.35-.31-.19-.7-.19-1.02,0-4.56,2.64-8.67,5.98-13.53,8.91-19.73,11.93-38.96,23.27-57.7,34.03-3.38,1.94-6.1,3.56-8.15,4.86-7.41,4.73-12.93,7.24-20.44,12.09-2.79,1.79-6.95,4.32-12.51,7.6-6.83,4.04-7.74,6.76-7.72,14.25,0,.26.21.47.47.47,0,0,.02,0,.03,0,2.62-.13,5.23-.91,7.83-2.34,8.57-4.69,18.7-9.98,30.37-15.87,10.09-5.1,25.38-13.72,39.24-20.42,8.04-3.89,15.35-8.24,21.4-12.21,2.83-1.86,5.79-4.47,8.88-7.81,1.69-1.83,3.76-5.16,6.21-9.97,1.39-2.72,3.71-6.8,6.97-12.22Z"/><path fill="currentColor" d="M737.6,83.1c-3.25,5.42-5.58,9.5-6.97,12.22-2.44,4.81-4.51,8.14-6.21,9.97-3.08,3.34-6.04,5.94-8.88,7.81-6.05,3.98-13.36,8.33-21.4,12.21-13.86,6.7-29.14,15.32-39.24,20.42-11.67,5.89-21.79,11.18-30.37,15.87-2.6,1.43-5.21,2.21-7.83,2.34-.26.02-.48-.18-.49-.44,0,0,0-.02,0-.03-.02-7.49.9-10.21,7.72-14.25,5.55-3.27,9.72-5.81,12.51-7.6,7.51-4.85,13.03-7.36,20.44-12.09,2.05-1.3,4.76-2.93,8.15-4.86,18.74-10.76,37.97-22.1,57.7-34.03,4.86-2.93,8.97-6.27,13.53-8.91.46-.28,1.06-.13,1.34.34.19.31.18.71,0,1.02Z"/><path fill="currentColor" d="M730.16,82.54l-17.74,10.77c5.31-4.63,10.34-9.87,17.74-10.77Z"/><path fill="currentColor" d="M39.64,132.27c-4.1-1.84-8.02-4.15-11.77-6.94C14.54,116.38,5.27,104.29.07,89.08c-.02-.07.01-.14.08-.16.03-.01.06,0,.09,0,32.31,16.1,56.66,28.5,90.39,44.97,26.36,12.86,54.27,26.86,83.71,41.99.15.08.28.19.37.33l6.02,9.61c.08.12.04.28-.08.35-.07.04-.16.05-.23.02l-8.79-3.62c-.18-.08-.38,0-.46.18-.03.07-.04.15-.02.22l.44,1.77c.04.17-.06.34-.22.38-.07.02-.14.01-.2-.01l-131.52-52.85Z"/><path fill="currentColor" d="M606.32,186.9c-.14.08-.32.02-.39-.13-.04-.09-.04-.2,0-.29l5.81-10.07c.1-.17.24-.3.41-.38l173.9-86.9c.2-.1.45-.01.55.19.04.09.05.19.03.28-6.33,22.12-26.63,37.87-47.07,46.1-15.32,6.17-41.31,16.53-77.96,31.08-17.6,6.98-32.11,12.3-45.8,18.1-.17.07-.37-.01-.44-.18-.04-.1-.03-.21.02-.3.33-.54.48-.97.45-1.29-.02-.26-.25-.44-.51-.42-.06,0-.11.02-.16.04l-8.84,4.16Z"/><path fill="currentColor" d="M705.3,97.56l-7.3,4.38c1.9-2.27,4.33-3.73,7.3-4.38Z"/><path fill="currentColor" d="M678.11,114l-7.34,4.4c1.82-2.27,4.27-3.74,7.34-4.4Z"/><path fill="currentColor" d="M24.67,134.81l9.5,3.69,136.31,52.77c.41.16.7.53.75.97.57,4.97,1.63,9.75,3.19,14.35.06.18-.03.38-.22.44-.07.02-.14.02-.2,0-32.12-9-75.43-21.11-129.93-36.33-8.43-2.36-17.79-8.21-24.82-14.07C9.56,148.57,3.15,138.31,0,125.88c-.04-.18.07-.35.24-.4.07-.02.13-.01.2.01l24.23,9.32Z"/><path fill="currentColor" d="M786.66,126.3c-.85,8.45-7.62,19.3-13.7,25.39-9.72,9.73-21.04,16.42-33.97,20.07-28.73,8.11-70.66,19.83-125.79,35.15-.21.06-.43-.07-.48-.28-.02-.06-.02-.13,0-.19l3.47-14.59c.1-.41.4-.75.8-.91l168.88-65.25c.31-.12.65.04.77.34.03.09.05.18.04.27Z"/><path fill="currentColor" d="M276.77,220.39c-2.96,1.75-4.95,4.38-6,7.9-.57,1.93-.86,2.91-.87,2.93-.09.23-.35.34-.58.25-.01,0-.03-.01-.04-.02-.83-.44-1.74-1.17-2.49-1.56-30.14-15.72-48.92-25.53-56.36-29.42-7.34-3.84-11.71-6.24-13.1-7.19-6.99-4.85-13.69-12.31-16.45-20.54-2.68-7.97-3.57-15.36-1.55-23.75.02-.08.09-.13.17-.12.02,0,.04.01.06.02,12.48,7.9,18.8,11.91,18.97,12.02,25.85,16.39,44.59,28.35,56.23,35.87,10.92,7.06,21.64,13.2,28.92,23.47,3.23,4.55,8.21,12.57,11.67,18.12,3.04,4.89,6.37,7.13,10.9,10.4,5.02,3.62,10.99,4.58,17.3,4.09.61-.05,1.19.28,1.45.84,1.44,3.02,3.48,5.86,6.12,8.5,3.64,3.65,7.71,5.38,12.66,4.18.28-.07.57.11.64.39.03.14,0,.29-.07.41-3.81,5.74-8.81,8.54-14.99,8.41-8.65-.18-12.47-5.15-15.68-12.41-.06-.15-.22-.22-.36-.17-.11.04-.19.15-.18.28-.13,6.19,2.13,11.01,6.79,14.45.7.51,2.52,1.25,3.5,1.97.22.17.37.4.44.67l1.49,6.05c.04.19-.07.37-.26.41-.04,0-.07.01-.11,0-7.41-.64-12.02-6.91-13.1-14.08-.03-.17-.19-.29-.37-.27-.11.02-.2.09-.24.19-.94,2.32-1.31,4.88-1.12,7.69.01.19-.14.36-.33.37,0,0-.01,0-.02,0-4.19.04-11.69-1.23-14.53-4.92-2.18-2.82-3.38-6-3.6-9.53-.02-.42.3-.79.72-.81.15,0,.29.03.42.1,6.69,3.81,12.61,2.86,17.77-2.86.09-.1.07-.26-.03-.35-.06-.05-.15-.07-.23-.05-10.75,4.18-20.61-2.52-19.97-14.16.05-1.02.12-1.97.21-2.87,0-.14-.1-.27-.24-.29-.1,0-.2.04-.24.13-3.25,5.58-3.23,11.13.06,16.66.1.15.05.36-.1.45-.06.04-.14.06-.22.05-6.29-.72-9.59-3.05-12.72-8.53-1.94-3.39-1.73-6.9-1.63-11.02,0-.19.16-.34.36-.34.05,0,.1.01.15.04,3.98,1.97,11.79,3.14,15.12-.62.11-.13.1-.33-.03-.44-.07-.06-.16-.09-.26-.07-12.78,2.33-19.44-10.17-13.74-20.62.07-.11.03-.25-.07-.31-.08-.05-.17-.05-.24,0Z"/><path fill="currentColor" d="M607.74,149.71c1.52,4.92,1.64,10.09.37,15.5-1.45,6.21-3.07,11.82-6.45,16.57-5.47,7.67-12.67,12.2-21.44,16.78-23.16,12.08-40.95,21.4-53.37,27.96-3.22,1.71-6.53,3.38-9.92,5.02-.19.09-.42,0-.51-.18-.02-.05-.04-.11-.04-.16,0-.21.01-.53.04-.96.21-2.98-3.97-8.26-6.2-10.36-.1-.1-.27-.11-.37,0-.07.07-.1.18-.06.28,1.27,4.42,1.89,6.45,2.01,10.13.23,6.91-7.16,11.99-13.55,11.35-.73-.07-1.62-.19-2.65-.36-.13-.03-.27.05-.3.19-.02.11.03.22.12.27,5.16,3.42,10.29,3.49,15.41.2.2-.13.48-.07.61.14.03.05.05.11.06.16,1.62,9.85-3.56,19.07-13.94,20.27-.26.03-.49-.15-.52-.4-.01-.1,0-.21.06-.3,3.37-5.72,3.11-11.28-.79-16.67-.05-.09-.16-.11-.25-.06-.07.04-.11.14-.08.22,1.79,7.54-.5,15-8.46,17.58-3.61,1.17-7.23,1.02-10.88-.45-.15-.06-.32,0-.38.16-.04.1-.02.22.05.31,3.57,4.19,7.97,5.76,13.21,4.7,1.74-.36,3.4-1.27,5.23-2.1.3-.14.66,0,.8.3.05.11.07.24.05.36-1.69,10.07-7.83,15.04-18.41,14.9-.3,0-.55-.23-.59-.53l-1.19-8.68c-.02-.11-.13-.19-.24-.17-.08.01-.15.07-.17.16-.79,3.16-1.28,5.01-1.46,5.55-1.67,4.87-6.18,10.48-11.78,9.69-.26-.04-.45-.28-.41-.55,0-.04.02-.09.04-.13.71-1.61,1.12-3.57,1.23-5.88.02-.34.24-.64.55-.78,3.76-1.6,6.86-3.55,8.67-7.31,1.5-3.13,2.11-6.28,1.85-9.47-.03-.19-.2-.31-.38-.29-.13.02-.24.11-.28.23-2.18,8.36-7.65,12.63-16.43,12.8-5.76.12-10.5-4.34-13.67-8.79-.11-.15-.08-.36.06-.47.07-.06.17-.08.26-.07,9.01,1.22,15.87-4.41,18.54-12.62.13-.39.48-.66.89-.68l8.04-.39c7.66-1.83,13.89-5.57,18.69-11.21,1.15-1.35,3.1-4.28,5.84-8.79,3.3-5.44,6.49-11.39,10.63-16.04,4.17-4.68,9.28-8.97,15.31-12.86,31.75-20.47,58.96-37.83,81.65-52.08,1.41-.88,2.84-1.79,4.28-2.72.33.14.54.39.63.76Z"/><path fill="currentColor" d="M513.97,157.74l-.22,3.92c0,.06-.05.11-.11.11-.06,0-.1-.04-.1-.1-.15-1.29-.1-2.59.14-3.91.1,0,.2-.01.29-.02Z"/><path fill="currentColor" d="M451.3,176.54c-3.58-2.35-6.99-2.53-10.23-.53-10.07,6.21-15.3,20.78-16.33,31.84-.58,6.33.27,12.22,2.56,17.65,5.59,13.29,17.84,22.75,31.21,27.17.34.12.53.49.41.84-.02.05-.04.09-.06.13-4.06,6.51-11.96,10.92-19.29,6.07-5.36-3.55-9.76-8.05-13.22-13.5-.07-.11-.22-.15-.34-.08h-.02c-.11.06-.15.2-.1.32,3.43,7.83,8.32,14.26,14.65,19.29.28.22.35.61.18.92-1.59,2.95-3.99,6.14-7.16,7.8-.27.14-.57.2-.88.16-4.74-.63-10.87-9.86-13.05-13.98-4.6-8.68-7.93-18.05-9.99-28.12-.02-.13-.13-.23-.27-.21s-.23.13-.21.27h0c.35,15.94,4.99,30.4,13.93,43.38,1.62,2.37,3.68,4.15,5.93,5.99.28.23.34.64.13.94-3.84,5.51-9.11,8.77-16.18,7.89-9.87-1.23-15.04-9.2-17.52-18.17-.41-1.51-.71-2.47-.9-2.88-.05-.11-.18-.16-.29-.12-.07.03-.13.1-.13.18-1.6,11.45-9.29,21.22-21.5,21.08-5.73-.07-9.99-2.43-13.02-7.03-.43-.65-.26-1.52.38-1.96,1.44-.98,2.82-2.29,4.11-3.92,10.61-13.32,15.83-28.6,15.66-45.86,0-.03-.02-.06-.05-.06s-.06.02-.06.05c-1.19,6.89-3.21,13.6-6.07,20.13-3.75,8.57-7.67,16.03-14.51,21.64-.73.59-1.73.95-3.03,1.08-.37.04-.74-.03-1.08-.2-3.25-1.62-5.62-4.34-7.09-8.15-.13-.35-.02-.74.27-.96,6.62-5.03,11.63-11.3,15.05-18.81.05-.11,0-.25-.1-.31h0c-.1-.06-.22-.03-.28.06-3.44,5.05-7.83,9.33-13.19,12.84-4.92,3.21-9.86,3.19-14.83-.05-1.77-1.16-3.82-3.39-6.15-6.71,6.36-1,12.64-3.04,18.86-6.12,12.62-6.24,22.71-16.29,26.58-29.92,1.88-6.62,2.45-13.37,1.73-20.24-.04-.31-.31-.53-.62-.5-8.9.68-15.11-2.95-18.62-10.89-.06-.14,0-.31.14-.37.05-.02.11-.03.17-.02,16.05,2.97,25.51-9.44,37.51-17.07,5.06-3.22,17.13-8.24,23.1-4.26,1.5,1,2.73,2.15,3.7,3.46.23.31.65.39.98.19,5-3.04,16.56-7.71,22.25-4.62,3.26,1.77,5.57,4.18,6.93,7.24,1.29,2.92,1.27,5.26-.07,7.03ZM405.74,181.1c3.04-2.61,5.15-4.54,6.34-5.81,1.94-2.05,4.22-3.77,6.84-5.15.25-.14.34-.45.21-.69-.08-.14-.22-.24-.38-.26-1.91-.24-3.9-.16-5.95.22-3.25.61-4.08,2.9-4.85,6.15-.4,1.71-1.27,3.42-2.62,5.14-.11.11-.1.29,0,.4s.29.1.4,0Z"/><path fill="currentColor" d="M183.92,222.21l-8.97-2.4c-.25-.07-.51.08-.58.34-.02.07-.02.15,0,.23l.06.28c.06.33-.15.65-.49.72-.07.01-.13.01-.2,0-44.95-6.31-83.35-11.66-115.2-16.04-20.57-2.83-45.37-15.19-51.5-37.03-.02-.06,0-.13.07-.15.02,0,.05-.01.08,0l169.48,45.34c.33.09.63.28.86.54l6.71,7.69c.11.13.09.32-.04.42-.08.06-.18.09-.27.06Z"/><path fill="currentColor" d="M779.56,168.84c-2.89,9.03-8.23,16.43-16.02,22.21-6.52,4.83-13.91,8.63-22.2,11.41-4.46,1.5-12.65,3.03-24.55,4.6-22.63,2.98-43.28,5.83-61.95,8.55-9.21,1.34-16.13,2.29-20.73,2.83-8.69,1.02-15.61,2-20.75,2.92-.31.06-.61-.15-.67-.46,0-.05-.01-.11,0-.16l.05-.48c.02-.23-.15-.42-.37-.44-.04,0-.09,0-.13.01l-8.4,2.07c-.15.04-.31-.06-.34-.21-.02-.08,0-.17.05-.24l5.78-7.45c.2-.26.48-.45.79-.53l166.97-44.62c1.22-.44,2.05-.44,2.5,0Z"/><path fill="currentColor" d="M270.73,248.68c-.01.13-.13.22-.26.2-.02,0-.04,0-.05-.01-5.56-2.08-12.02-4.31-19.36-6.66-12.52-4.02-25-8.01-37.44-11.98-3.13-1-4.8-1.53-4.99-1.58-16.89-4.99-30.28-17.65-31.02-36.19,0-.3.23-.56.53-.57.09,0,.18.02.26.05l91.58,43.06c.36.17.67.45.87.8l2.29,3.96c.26.47.26,1.04,0,1.5-1.38,2.44-2.18,4.92-2.4,7.42Z"/><path fill="currentColor" d="M515.98,248.84c-.22-2.51-1.02-4.99-2.41-7.44-.27-.46-.27-1.04,0-1.51l2.29-3.97c.2-.35.51-.63.87-.8l91.85-43.24c.27-.13.6-.02.73.26.04.08.06.17.05.27-.73,18.59-14.15,31.3-31.09,36.32-.19.05-1.86.59-5.01,1.59-12.48,3.99-24.99,8-37.55,12.03-7.37,2.37-13.84,4.6-19.42,6.69-.12.05-.26-.01-.31-.13,0-.02-.01-.04-.01-.06Z"/><path fill="currentColor" d="M16.47,205.87l157.42,21.61c.45.06.83.36,1,.79l3.49,9.05c.1.25-.03.53-.28.63-.06.02-.12.03-.18.03-37.07-.49-72.21-.78-105.41-.88-6.74-.02-12.73-.76-17.96-2.19-15.18-4.18-32.52-12.73-38.32-28.72-.04-.12.02-.26.14-.3.03-.01.07-.02.11,0Z"/><path fill="currentColor" d="M771.09,205.82c-2.16,5.78-5.39,10.49-9.71,14.15-3.45,2.93-7.82,6.39-12.06,8.52-7.2,3.61-14.27,6.12-21.23,7.51-3.73.75-8.3,1.12-13.7,1.1-11.88-.04-43.96.19-96.22.69-3.14.03-6.13.01-8.97-.05-.12,0-.21-.09-.21-.22,0-.02,0-.05,0-.07l2.72-9.25c.08-.27.31-.47.59-.51l152.18-21.08,6.58-.8Z"/><path fill="currentColor" d="M276.86,263.24c-.39.08-.96.06-1.72-.05-23.13-3.33-40.96-5.84-53.47-7.51-1.45-.2-5.04-.79-10.78-1.78-13.48-2.35-25.82-11.56-29.27-25.29-.06-.25.08-.5.33-.57.08-.02.16-.02.24,0l87.69,23.46c.6.16,1.05.65,1.17,1.26.71,3.68,2.69,7.02,5.93,10.03.1.1.11.26.01.36-.04.04-.09.07-.14.08Z"/><path fill="currentColor" d="M510.12,263.01c2.63-3.14,4.85-5.94,5.23-10.17.06-.61.49-1.12,1.09-1.27,5.08-1.24,14.24-3.66,27.46-7.25,34.66-9.4,53.46-14.45,56.4-15.14,1.48-.35,3.22-.58,4.68-.84.11-.02.22.05.25.17,0,.02,0,.05,0,.07-1.66,11.56-11.97,19.99-22.41,23.6-1.45.5-4.99,1.3-10.62,2.4-3.5.68-7.1,1.26-10.81,1.74-15.29,1.95-32.29,4.33-51.02,7.14-.15.02-.29-.09-.31-.23-.01-.07.01-.15.06-.21Z"/><path fill="currentColor" d="M60.11,243.02l119.68.34c.85,0,1.67.28,2.35.8l4.01,3.12c.39.3.47.86.17,1.26-.15.19-.36.31-.6.34-11.78,1.66-27.26,3.17-41.7,5.24-26.51,3.79-46.71,6.55-60.6,8.28-6.97.87-14.15.7-21.55-.5-10.46-1.71-19.59-6.64-27.4-14.78l-3.02-4.01c-.12-.15-.09-.37.07-.49.06-.05.14-.07.22-.07l28.38.48Z"/><path fill="currentColor" d="M752.68,247.12c-6.83,7.11-14.74,11.78-23.72,14.01-7.39,1.83-15.07,2.29-23.02,1.35-19.59-2.3-39.64-4.97-60.17-8.01-5.5-.82-20.16-2.71-43.98-5.69-.48-.05-.82-.48-.76-.96.02-.2.11-.38.25-.52l2.75-2.75c.73-.72,1.71-1.13,2.73-1.13l133.26-.48,14.47-.2c.24,0,.43.19.44.42,0,.08-.02.16-.06.22l-2.18,3.73Z"/><path fill="currentColor" d="M51.92,276.41l-1.91-2.59c-.12-.17-.08-.4.08-.52.05-.04.11-.06.17-.07l16.27-2.07,119.88-17.57c.29-.04.57.16.61.45.53,3.28,1.49,6.44,2.87,9.49.07.15,0,.32-.14.39-.01,0-.02,0-.03.01-9.97,3.08-19.8,5.9-29.5,8.47-15.41,4.08-35.08,9.57-59.01,16.45-5.31,1.53-9.45,2.38-12.41,2.55-13.9.82-27.43-4.91-36.88-14.99Z"/><path fill="currentColor" d="M736.32,273.13c.24.01.42.22.4.46,0,.06-.02.13-.05.18-.79,1.37-1.91,2.8-3.36,4.3-9.04,9.36-20.66,13.23-33.9,13.29-3.09.01-7.04-.65-11.85-1.99-9.33-2.61-21.37-6-36.12-10.18-19.48-5.52-36.2-9.77-53.55-15.25-.33-.11-.51-.46-.41-.79,0-.01,0-.03.01-.04,1.14-2.89,1.87-5.96,2.18-9.21.02-.27.26-.46.52-.44,0,0,.02,0,.02,0,15.63,2.18,32.13,5.09,46.12,6.95,3.14.42,22.36,3.16,57.68,8.22,12.16,1.75,22,3.77,32.29,4.51Z"/><path fill="currentColor" d="M291.43,277.97c-16.64.69-34.72,1.71-54.24,3.07-5.06.35-9.41.37-13.05.05-11.95-1.04-21-6.55-27.15-16.52-.92-1.49-1.58-3.11-1.97-4.85-.07-.31.13-.61.43-.67.06-.01.11-.02.17-.01l92.44,8.47c.21.01.38.19.37.4-.03,3.52,1.04,6.71,3.22,9.56.11.13.08.33-.05.44-.05.04-.12.06-.19.07Z"/><path fill="currentColor" d="M495.41,277.91c-.18-.01-.31-.16-.3-.33,0-.06.03-.12.06-.17,2.18-2.85,3.26-6.04,3.24-9.57,0-.21.16-.39.37-.4l92.62-8.36c.31-.03.59.2.61.52,0,.06,0,.11-.01.17-.39,1.74-1.05,3.36-1.97,4.85-6.18,9.98-15.25,15.49-27.22,16.52-3.64.31-7.99.29-13.06-.07-19.55-1.39-37.66-2.44-54.33-3.15Z"/><path fill="currentColor" d="M587.7,277.6c-.14-.07-.19-.24-.12-.38.02-.03.04-.06.07-.08,2.89-2.52,5.29-5.42,7.19-8.72.05-.09.15-.13.24-.1l119.36,35.13c.33.1.53.45.43.78-.02.08-.06.15-.11.21-2.55,3.26-5.96,6.14-10.25,8.63-8.99,5.23-18.8,7.2-29.42,5.92-2.38-.29-5-1.1-7.84-2.41-6.56-3.04-11.01-5.13-13.34-6.28-22.36-11.01-44.84-21.73-66.2-32.69Z"/><path fill="currentColor" d="M75.17,302.45l9.6-2.75,106.35-31.37c.62-.18,1.28.07,1.62.62,1.9,3.13,4.15,5.92,6.75,8.37.09.08.1.22.01.31-.02.02-.04.04-.07.05-20.19,10.07-46.86,23.1-80.04,39.09-3.66,1.76-8.57,2.58-14.75,2.45-11.73-.25-25.59-5.49-32.92-15.36-.14-.19-.1-.46.09-.6.05-.04.1-.06.16-.07l3.2-.75Z"/><path fill="currentColor" d="M327.36,280.54c7.99-.33,13.26-2.55,17.64-9.28.11-.17.34-.21.51-.1.05.04.09.08.12.14,2.4,5.04,4.75,8.84,10.39,10.71.22.07.33.3.26.52-.01.04-.04.09-.06.12-5.14,7.01-14.3,10.51-22.32,6.17-3.52-1.91-5.83-4.49-6.93-7.75-.07-.22.05-.45.26-.52.04-.01.07-.02.11-.02Z"/><path fill="currentColor" d="M460.01,280.24c.2-.01.38.14.39.34,0,.05,0,.09-.02.14-.98,3.28-2.94,5.76-5.87,7.44-6.58,3.77-13.06,3.44-19.44-.98-1.35-.94-2.41-2.17-3.16-3.67-.27-.52-.1-1.16.38-1.49l5.28-3.58c.22-.15.41-.34.56-.57l3.86-5.88c.14-.22.44-.28.66-.14.05.04.1.08.14.14,3.99,6.05,9.73,8.8,17.21,8.25Z"/><path fill="currentColor" d="M342.27,299.88c-.05.12-.11.37-.16.77-.04.26-.17.5-.41.73-2.13,2.11-4.76,3.72-7.88,4.83-8.25,2.91-14.32.53-18.21-7.16-.29-.56-.22-1.23.16-1.72l2.18-2.82c.08-.08.08-.2,0-.27-.08-.08-.2-.08-.27,0h0l-2.68,2.14c-.1.08-.21.14-.33.18-10.15,3.88-16.27-2.01-19.29-11-.08-.23-.33-.35-.56-.27-.16.05-.27.19-.29.36l-.61,4.37c-.04.31-.28.55-.59.61-1.19.23-11.87,3.12-32.01,8.67-5.83,1.61-11.04,2.65-17.28,4.03-5.8,1.28-11.72,1.01-17.77-.82-6.16-1.86-13.03-7.03-14.8-13.81-.05-.2.07-.4.27-.46.03,0,.07-.01.1-.01,2.4.09,4.53.05,6.39-.13,16.95-1.62,28.53-2.7,34.74-3.23,13.17-1.12,29.3-3.46,40.68-4.21.54-.04,1.24.22,2.09.78,4.3,2.81,9.76,2.84,14.36.73.27-.13.6-.01.75.27,2.53,4.9,7.69,9.35,13.45,9.54,2.16.07,3.63.16,4.42.27.45.06.87.21,1.25.45,4.66,2.83,8.82,4.12,12.49,3.89,3.23-.21,6.8-1.66,10.72-4.35.82-.57,2.66-3.07,3.75-3.97.22-.17.53-.14.71.08.02.02.04.05.05.08,2.26,4.36,6.2,7.22,11.8,8.59.48.12.77.6.65,1.07-.01.06-.03.11-.06.16-4.99,10.95-21,11.85-27.19,1.59-.1-.17-.31-.22-.48-.12-.06.04-.11.09-.14.16Z"/><path fill="currentColor" d="M468.53,294.02l2.34,2.82c.53.64.65,1.53.28,2.28-3.52,7.26-9.24,9.67-17.14,7.22-2.71-.83-5.72-2.92-9.04-6.26-.17-.17-.45-.17-.63,0-.04.04-.63.69-1.76,1.94-1.59,1.76-3.68,3.11-6.27,4.06-6.35,2.33-11.97.99-16.87-4.03-1.11-1.14-1.93-2.29-2.46-3.45-.15-.33,0-.71.32-.86.01,0,.03-.01.04-.02,4.89-1.79,10.15-3.99,12.05-9.63.08-.25.35-.39.6-.3.09.03.17.09.23.17,1.77,2.3,3.63,4.62,6.03,5.96,7.25,4.07,14.41,3.58,21.49-1.45.43-.31.96-.45,1.49-.4,7.79.72,13.3-2.5,16.52-9.67.12-.26.42-.37.68-.26,5.16,2.29,10.31,1.92,15.45-1.12.29-.17.61-.26.95-.27,1.57-.04,3.51.08,5.82.36,26.43,3.18,51.85,5.64,76.25,7.39.27.02.47.25.45.52,0,.02,0,.04,0,.06-1.75,8.93-12.87,14.13-21.15,14.71-5.14.35-9.12.2-11.95-.46-14.68-3.45-24.11-6.25-48.58-12.79-.28-.07-.5-.3-.57-.59l-1.23-5.03c-.06-.2-.26-.33-.47-.28-.14.04-.25.15-.27.3-1.58,9.18-9.46,15.38-18.66,11.69-.64-.26-1.83-1.23-3.58-2.93-.1-.09-.25-.09-.35,0v.02c-.07.1-.07.22,0,.31Z"/><path fill="currentColor" d="M100.06,333.17l-.23-.27c-.17-.2-.15-.51.05-.68.04-.03.08-.06.12-.08l11.77-5.13,91.64-45.57c.83-.42,1.84-.3,2.57.3l.06.05c.44.37.5,1.04.13,1.48-.08.1-.19.18-.3.25-1.08.59-1.7,1.28-1.86,2.08-.06.29-.04.58.06.86l3.04,8.38c.15.4-.01.84-.37,1.05-15.55,9.01-34.29,19.57-56.2,31.68-9.03,4.99-14.67,7.87-16.91,8.65-11.31,3.93-23.49,4.22-33.56-3.04Z"/><path fill="currentColor" d="M581.03,282.75c-.33-.21-.43-.64-.22-.97.07-.11.16-.2.28-.26l.41-.2c.7-.35,1.52-.35,2.21,0,36.49,18.5,64.25,32.36,83.3,41.58,11.68,5.65,18.25,8.78,19.73,9.39.43.18.63.68.45,1.12-.07.16-.19.3-.34.4-13.26,7.92-28.79,5.83-41.82-1.43-27.64-15.4-46.05-25.76-55.23-31.08-2.94-1.71-6.1-3.6-9.47-5.65-.4-.24-.55-.74-.37-1.16,1.03-2.31,1.9-4.81,2.6-7.51.49-1.88-.02-3.3-1.52-4.24Z"/><path fill="currentColor" d="M373.9,298.12c-.11-.25.01-.54.26-.65.06-.02.12-.04.19-.04,9.31-.3,14.73-4.51,19.95-11.79.14-.18.39-.22.58-.08.05.04.09.08.12.14,3.85,7.38,9.67,10.34,17.7,11.83.48.09.8.55.71,1.03-.02.08-.04.16-.08.24-4.4,8.71-11.63,12.75-21.7,12.12-8.5-.54-14.4-4.8-17.72-12.8Z"/><path fill="currentColor" d="M302.19,300.64c.11.05.15.19.1.29-.02.04-.06.08-.1.1-12.34,6.67-22.39,12.04-30.18,16.11-13.95,7.29-28.29,8.93-39.66-3.58-.08-.08-.08-.21,0-.28.03-.03.06-.04.09-.05,4.98-1.18,10-2.55,15.07-4.11,19.65-6.05,35.36-10.96,47.11-14.75.38-.12.79.03,1.01.37,1.64,2.53,3.82,4.5,6.55,5.91Z"/><path fill="currentColor" d="M484.59,300.53c2.74-1.42,4.93-3.4,6.58-5.95.22-.34.64-.49,1.02-.37,11.82,3.82,27.61,8.77,47.38,14.86,5.1,1.57,10.15,2.95,15.16,4.14.11.02.18.13.15.24,0,.04-.03.07-.05.1-11.44,12.59-25.87,10.92-39.89,3.59-7.83-4.1-17.95-9.51-30.35-16.22-.11-.06-.15-.2-.09-.31.02-.04.05-.07.09-.09Z"/><path fill="currentColor" d="M305.77,304.9c-1.26,1.26-1.77,3.48-1.52,6.66.05.67-.22,1.32-.72,1.76-7.26,6.16-15.55,14.65-25.08,20.45-6.01,3.67-15.41,4.59-21.34-.11-.2-.16-.23-.45-.07-.65.03-.04.07-.07.11-.1l48.54-30.41c.2-.13.41-.23.63-.32l8.05-3.14c.06-.02.12,0,.14.07,0,.02,0,.04,0,.05-1.02,6.72,3.75,9.18,8.52,12.31.37.25.63.63.73,1.06.36,1.58.65,2.78.87,3.58,1.19,4.24,5.2,7.55,9.24,9.14.27.11.4.41.29.68-.01.03-.02.05-.04.07-4.5,7.65-6.87,11.65-7.1,12-3.12,4.64-8.82,9.91-14.38,11.43-2.61.71-5.78.86-9.52.44-.09,0-.15-.08-.14-.17,0-.03.01-.05.03-.08,5-7.47,9.73-15.64,14.19-24.51.05-.11.19-.16.3-.11.04.02.07.05.1.09,3.23,5.25,9.1,8.69,13.98,2.83.1-.12.09-.3-.03-.4-.07-.06-.16-.08-.25-.07-2.16.49-4.45.41-6.86-.24-6.07-1.64-5.77-6.1-6.87-11.32-.06-.28-.31-.48-.59-.48-.21,0-.63.05-1.24.13-6.2.83-9.92-2.39-9.89-8.54,0-.59.37-1.44.37-1.94,0-.15-.13-.27-.28-.27-.07,0-.14.03-.19.08Z"/><path fill="currentColor" d="M664.23,351.52c-8.87,4.73-20.47,5.98-30.04,2.09-2.06-.83-5.11-2.6-9.14-5.28-22.53-15.03-42.57-28.47-60.12-40.32-.28-.19-.35-.57-.16-.85.07-.1.17-.18.28-.22,4.19-1.65,7.75-4.02,10.7-7.11.29-.3.75-.36,1.11-.16l87.4,50.46c.38.22.51.7.29,1.07-.07.13-.19.24-.32.31Z"/><path fill="currentColor" d="M122.74,351.41c-.39-.2-.54-.67-.34-1.06.07-.13.18-.25.31-.32l87.4-50.28c.36-.21.82-.14,1.11.16,2.94,3.09,6.49,5.46,10.67,7.12.31.12.47.46.35.78-.05.12-.13.22-.23.29-17.55,11.81-37.58,25.2-60.12,40.18-4.03,2.68-7.08,4.43-9.14,5.27-9.57,3.87-21.15,2.6-30-2.14Z"/><path fill="currentColor" d="M469.52,317.53c-1.55,4.73-1.71,8.77-7.52,9.86-2.35.44-4.55.34-6.58-.28-.22-.06-.46.06-.52.29-.02.09-.02.18,0,.26.37.97,1.96,2.3,3.01,2.66,4.67,1.59,8.35.13,11.02-4.39.12-.21.39-.28.6-.15.07.04.13.11.17.18,4.09,7.96,8.72,15.68,13.9,23.17.16.23.1.55-.13.72-.07.05-.14.08-.22.09-10.2,1.42-18.79-4.89-23.7-12.73-2.35-3.75-4.53-7.38-6.53-10.89-.24-.42-.09-.96.33-1.2.03-.02.06-.03.1-.05,5.17-2.11,9.7-6.67,9.85-12.73.01-.51.32-.97.79-1.18,4.2-1.85,8.97-6.23,9.18-11.22.02-.21.2-.37.41-.35.07,0,.13.03.18.06.94.64,2.69,1.24,5.27,1.81.69.15,1.34.43,1.93.82,8.25,5.56,14.59,9.67,19.03,12.32,10.54,6.3,18.78,11.47,24.72,15.5,1.15.79,2.84,1.71,5.06,2.78.27.13.39.46.26.73-.05.1-.13.19-.23.24-6.83,3.68-13.7,3.72-20.61.13-3.25-1.69-6.95-4.32-11.12-7.9-7.75-6.66-12.9-11.14-15.43-13.47-.23-.21-.34-.52-.29-.83.38-2.28.2-4.4-.53-6.35-.06-.17-.25-.26-.42-.2-.14.05-.23.18-.22.32.11,7.74-3.5,11.06-10.81,9.97-.26-.04-.49.13-.53.39-.02.16.04.32.16.43,2.97,2.61,6.03,2.74,9.16.38.43-.33.96-.71,1.59-1.13.24-.15.55-.11.73.1,3.38,3.89,7.76,8.57,13.13,14.06,4.6,4.7,8.94,9.43,13.94,13.27.24.19.28.54.09.78-.04.05-.08.09-.13.12-6.28,4.1-14.61,2.92-20.06-1.29-1.35-1.04-3.22-3.25-5.6-6.64-5.61-7.95-9.91-14.13-12.9-18.55-.1-.14-.28-.17-.42-.07-.05.04-.09.09-.11.14Z"/><path fill="currentColor" d="M350.93,315.33c-7.83,7.6-18.76,7.83-24.56-2.53-.14-.24-.05-.55.19-.68.08-.04.17-.07.26-.06,4.97.08,8.99-1.73,12.04-5.43,1.54-1.86,2.62-3.38,3.23-4.55.07-.14.24-.2.38-.13.08.04.13.11.15.19,1.69,5.95,5.49,9.33,11.8,10.01,6.88.74,12.41-1.89,16.57-7.89.13-.19.4-.23.59-.1.06.04.1.1.14.16,2.4,5.09,6.23,8.54,11.52,10.35.35.12.54.49.44.84-1.04,3.6-3.35,6.18-6.95,7.74-8.43,3.66-15.32,2.04-20.66-4.86-.82-1.06-1.27-2.5-1.94-3.11-.12-.11-.31-.1-.43.02-.05.06-.08.13-.08.2.2,7.77,4.15,12.59,11.87,14.46.26.06.42.32.36.58-.02.08-.06.15-.11.21-9.41,10.26-24.19,8.56-29.92-4.56-.09-.19,0-.42.2-.51.05-.02.11-.03.16-.03,7.34.1,12.35-3.29,15.02-10.16.03-.08,0-.17-.09-.2-.06-.02-.12,0-.17.04Z"/><path fill="currentColor" d="M435.84,315.29c2.21,6.95,7.17,10.41,14.88,10.39.21,0,.38.17.39.39,0,.05,0,.1-.03.15-3.49,8.33-9.67,11.97-18.54,10.92-4.36-.51-7.97-2.63-10.81-6.34-.16-.2-.12-.5.08-.66.05-.04.1-.06.16-.08,7.11-2.22,11.71-7.01,11.57-14.73,0-.12-.1-.21-.21-.21-.07,0-.13.03-.17.09-4.18,5.95-8.22,9.99-15.92,9.88-6.89-.1-11.29-3.93-14.24-9.63-.15-.3-.04-.66.25-.81.04-.02.09-.04.13-.05,5.79-1.49,9.83-5.04,12.11-10.66.08-.21.32-.31.52-.22.08.03.14.09.19.16,6.54,10.49,24.51,12.65,28.27-1.79.05-.19.24-.31.43-.26.11.03.2.11.24.21,2.71,6.55,7.84,9.88,15.39,9.99.15,0,.26.12.26.27,0,.04,0,.07-.02.11-4.2,9.08-14.44,11.28-22.02,4.77-1.5-1.29-2.36-2.01-2.57-2.17-.1-.08-.24-.06-.32.05-.05.06-.06.14-.04.22Z"/><path fill="currentColor" d="M642.02,367.12c.22.15.28.45.13.67-.06.09-.15.15-.25.19-11.59,4.07-25.58,4.37-35.67-3.65-8.5-6.75-25.93-20.47-52.28-41.18-.19-.15-.23-.43-.08-.62,0-.01.02-.02.03-.04l5.71-5.7c.12-.12.21-.25.29-.4l1.87-3.5c.23-.43.76-.59,1.19-.36.03.02.06.03.08.05l78.97,54.55Z"/><path fill="currentColor" d="M144.95,367.07l78.95-54.42c.4-.27.94-.18,1.22.22.02.03.04.06.05.09l1.87,3.5c.08.15.18.29.29.4l5.7,5.7c.17.17.17.45,0,.63-.01.01-.02.02-.04.03-26.35,20.67-43.77,34.36-52.27,41.09-10.09,8-24.06,7.69-35.64,3.61-.25-.09-.39-.36-.3-.61.03-.1.1-.19.19-.25Z"/><path fill="currentColor" d="M316.42,317.06c.11-.08.25-.05.33.05.06.08.06.18,0,.26-4.44,6.9-8.17,12.58-11.17,17.03-1.51,2.25-3.35,4.6-5.51,7.04-4.83,5.44-14.58,6.41-21.22,2.9-.34-.18-.47-.61-.28-.95.03-.06.08-.12.13-.17,9.25-8.86,18.09-18.07,26.52-27.63.18-.2.48-.22.69-.05.24.22.89.72,1.95,1.49,2.94,2.16,5.79,2.17,8.57.03Z"/><path fill="currentColor" d="M404.67,325.42c-4.54,7.54-12.81,12.3-19.67,3.96-1.23-1.5-2.1-2.97-2.6-4.41-.12-.33-.04-.7.2-.95,1.97-2.07,3.68-4.67,5.13-7.81.16-.34.53-.53.9-.46,3.36.62,6.64.6,9.85-.05.38-.08.75.16.85.53.84,3.19,2.57,5.94,5.19,8.24.28.24.35.64.16.95Z"/><path fill="currentColor" d="M617.98,380.74l-2.81.54c-6.11.98-11.64.62-16.59-1.05-7.56-2.55-12.62-7.13-20.41-14.01-12.35-10.88-22.87-20.12-31.58-27.72-3-2.63-6.22-5.58-9.64-8.87-.22-.22-.22-.58,0-.8.1-.1.24-.16.38-.17,3.62-.13,7.18-1.06,10.67-2.8.51-.25,1.12-.2,1.59.14,11.5,8.37,25.9,20.24,47.17,37.5,8.88,7.2,15.83,12.68,20.84,16.42.26.19.38.46.37.81Z"/><path fill="currentColor" d="M249.86,328.62c.21,0,.39.17.39.38,0,.11-.04.21-.12.28-7.78,7.5-15.34,14.41-22.66,20.72-9.46,8.14-16.28,14.13-20.45,17.95-5.48,5.02-9.96,8.35-13.43,10-7.4,3.52-15.01,4.59-22.84,3.21-.44-.08-.83-.21-1.15-.39-.25-.14-.34-.45-.2-.69.03-.06.08-.11.13-.15l67.34-53.66c.61-.49,1.45-.57,2.14-.22,3.46,1.76,7.07,2.61,10.85,2.58Z"/><path fill="currentColor" d="M380.4,325.9c.12-.12.32-.12.44,0,.05.05.09.13.09.2.46,5.14,3.05,8.97,7.79,11.49,1.04.55,2.18.78,3.45.69.22-.01.4.15.42.36,0,.09-.02.18-.07.25-4.46,6.28-8.67,11.09-17.01,10.09-5.83-.69-10.1-3.96-12.81-9.79-.13-.28-.06-.62.17-.83,2.56-2.32,4.6-4.81,6.12-7.48.32-.56.92-.92,1.56-.93,3.96-.1,7.24-1.46,9.85-4.06Z"/><path fill="currentColor" d="M407.53,326.77c3.46,2.67,6.91,3.93,10.33,3.79.22-.01.43.09.56.27l5.41,7.53c.34.47.37,1.09.1,1.6-3.49,6.61-8.81,9.57-15.95,8.86-5.95-.59-10.28-4.21-13.16-9.21-.21-.36-.09-.82.27-1.03.06-.04.13-.06.2-.08,6.24-1.57,9.22-5.74,11.5-11.54.1-.25.38-.38.63-.28.04.02.09.04.12.07Z"/><path fill="currentColor" d="M321.76,387.74c-1.68.85-3.07,1.15-4.15.9.75-2.76,1.45-5.5,2.11-8.21,1.97-8.15,4.41-17.88,7.31-29.18,1.99-7.76,5.09-15.29,7.42-21.02.04-.1.16-.15.27-.11.05.02.1.07.12.13,1.51,4.65,4.08,7.83,7.73,9.54.46.22.76.68.76,1.2.02,9.49,4.32,15.44,12.91,17.85.24.07.37.32.3.56,0,.03-.02.05-.03.07-.48.98-1.17,1.64-2.08,1.97-6.06,2.22-11.26.98-15.6-3.7-.13-.15-.36-.16-.5-.03-.07.06-.11.15-.12.24-.39,5.19-1.54,10.26-3.46,15.22-2.52,6.55-6.91,11.35-13,14.57Z"/><path fill="currentColor" d="M469.49,389.04c-2.31-.46-4.66-1.48-7.04-3.06-8.87-5.86-12.62-17.09-13.47-27.41-.01-.18-.17-.32-.35-.3-.06,0-.11.02-.16.06-.91.66-1.65,1.56-2.95,2.31-4.82,2.79-9.5,2.5-14.02-.84-.25-.18-.3-.53-.11-.78.07-.09.17-.16.28-.2,8.88-2.67,11.39-9.84,12.47-18.36.04-.31.22-.58.49-.73,3.6-2,6.12-5.18,7.56-9.54.04-.12.17-.19.29-.15.07.02.12.07.14.13.06.12.51,1.51,1.36,4.17,1.48,4.69,4.18,8.9,5.22,13.4,3.14,13.58,6.58,27.35,10.3,41.3Z"/><path fill="currentColor" d="M593.86,388.55c-2.12.87-4.31,1.24-6.58,1.12-7.2.09-13.75-1.66-19.63-5.23-2.43-1.47-4.86-3.64-7.29-6.51-5.14-6.06-8.97-10.7-11.51-13.9-6.75-8.54-11.88-14.56-18.41-23.16-.19-.25-.14-.59.1-.78.03-.02.06-.04.09-.06,2.16-1.05,4.06-2.39,5.7-3.99.15-.15.4-.15.55,0l56.98,52.52Z"/><path fill="currentColor" d="M251.03,336.61l5.37,3.7c.25.17.33.52.16.78-.55.89-1.83,2.6-3.85,5.12-9.48,11.87-18.55,22.91-27.22,33.11-7.48,8.8-20.85,11.76-31.9,9.67-.26-.05-.44-.3-.38-.57.02-.1.07-.19.15-.26,18.31-16.53,34.65-31.52,49.01-44.99,2.59-2.43,5.16-4.61,7.7-6.55.28-.21.67-.22.96-.02Z"/><path fill="currentColor" d="M345.29,341.42c1.85.38,2.84.59,2.99.61,4.95.9,9.28.1,12.98-2.39.15-.11.35-.07.46.09.04.05.06.11.06.18.3,5.45,2.98,9.47,8.05,12.06.17.09.24.29.16.47-.03.07-.09.12-.16.16-8.13,4.18-18.07,2.41-22.8-6.06-1.2-2.15-1.96-3.65-2.27-4.51-.09-.24.04-.5.27-.59.08-.03.16-.03.25-.02Z"/><path fill="currentColor" d="M442.07,341.82c-1.37,3.28-2.71,5.67-4,7.19-3.88,4.55-9.05,6.4-15.5,5.53-2.41-.32-4.14-.96-5.18-1.92-.16-.15-.17-.4-.02-.56.03-.04.07-.07.12-.09,4.81-2.35,7.63-6.2,8.46-11.56.03-.23.25-.4.49-.36.05,0,.11.03.15.05,4.63,2.59,9.66,3.01,15.07,1.27.17-.06.36.03.42.21.03.08.02.16,0,.24Z"/><path fill="currentColor" d="M268.93,341.99c-.44,1.6.16,3.18,1.8,4.74.59.55.7,1.44.27,2.12-6.73,10.78-11.76,19.02-15.07,24.74-4.17,7.2-7.49,11.9-9.96,14.11-6.5,5.82-14.51,8.45-24.02,7.88-.34-.02-.59-.32-.57-.65,0-.12.05-.23.12-.32l40.69-52.5c.42-.54,1.14-.76,1.78-.55,1.66.55,3.15.56,4.49.05.18-.07.38.02.45.2.03.07.03.14.01.2Z"/><path fill="currentColor" d="M565.85,395.54c.08.1.06.24-.05.32-.04.03-.09.05-.15.05-4.74-.1-10-.3-14.57-2.08-6.76-2.64-11.98-7.01-15.67-13.13-8.86-14.66-15.36-25.31-19.5-31.93-.31-.49-.23-1.13.19-1.53,1.3-1.23,2.12-2.8,2.46-4.74.06-.38.42-.63.79-.57,0,0,.01,0,.02,0,.96.18,2.14.03,3.56-.43.44-.14.92-.02,1.23.32,2.15,2.38,4.34,5.02,6.58,7.94,12.65,16.41,24.35,31.67,35.1,45.78Z"/><path fill="currentColor" d="M375.77,354.1c7.37.29,13.08-2.78,17.14-9.21.08-.13.26-.17.4-.09.03.02.05.04.07.06l4.28,5.37c.11.14.13.34.04.49-4.16,7.44-13.89,10.99-20.94,5.46-.54-.42-.97-.93-1.31-1.54-.1-.18-.04-.4.14-.5.06-.03.13-.05.19-.04Z"/><path fill="currentColor" d="M270.02,388.94l-2.68,2.41c-5.18,4.63-11.15,7-17.92,7.09-.22,0-.41-.17-.41-.39,0-.06.01-.12.04-.17,1.08-2.39,1.79-3.9,2.15-4.54,1.8-3.32,7.84-13.96,18.12-31.93,3.52-6.16,5.74-9.92,6.65-11.28.19-.28.54-.4.87-.3,4.39,1.34,8.7,1.91,12.91,1.72.13,0,.24.09.25.23,0,.04,0,.08-.02.12-5.08,10.83-10.42,21.42-16,31.76-.6,1.1-1.91,2.86-3.95,5.28Z"/><path fill="currentColor" d="M536.82,395.88c.55.62.92,1.32,1.12,2.08.05.18-.06.38-.24.43-.04.01-.08.01-.11.01l-4.3-.36c-9.4-2.11-16.48-7.48-21.25-16.11-1.78-3.21-3.58-7.69-5.58-11.24-3.25-5.8-6.43-12.05-9.52-18.77-.07-.14,0-.3.13-.37.05-.02.1-.03.15-.03,3.98.34,8.16-.23,12.54-1.73.51-.18,1.08.04,1.34.51l25.72,45.55Z"/><path fill="currentColor" d="M321.79,350.82c-1.93,9.98-4.01,18.81-6.23,26.47-2.8,9.67-9.05,15.63-18.73,17.88-.23.05-.46-.09-.52-.32-.02-.09-.01-.18.02-.26l15.03-36.46c.52-1.26,1.42-2.33,2.57-3.05l7.36-4.61c.15-.1.36-.06.46.09.05.08.07.17.05.26Z"/><path fill="currentColor" d="M465.79,350.76l7.3,4.53c1.14.71,2.03,1.76,2.55,3.01l14.97,36.01c.09.22,0,.47-.22.56-.08.04-.18.04-.26.02-9.59-2.19-15.78-8.07-18.59-17.63-2.22-7.58-4.31-16.3-6.24-26.17-.03-.18.09-.35.27-.38.08-.01.16,0,.23.04Z"/><path fill="currentColor" d="M411.75,354.81c-.07,4.12-1.83,7.26-5.26,9.43-.36.23-.8.29-1.2.18-3.14-.85-5.37-2.78-6.68-5.79-1.01-2.28.69-4.63,2.13-6.09.31-.32.78-.41,1.19-.24,3.2,1.33,6.24,1.94,9.11,1.82.37-.02.68.26.7.63,0,.02,0,.03,0,.05Z"/><path fill="currentColor" d="M415.25,354.32c3.57,3.4,7.88,5.11,12.94,5.13.14,0,.24.11.24.25,0,.03,0,.05-.01.08-2.69,7.44-10.53,13.02-18.01,7.61-.33-.24-.4-.69-.16-1.02.02-.03.05-.06.07-.08,3.3-3.32,4.8-7.23,4.48-11.75-.01-.15.1-.27.25-.28.07,0,.15.02.2.07Z"/><path fill="currentColor" d="M277.28,398.01l-4.5.68c-.21.03-.41-.11-.44-.32-.01-.08,0-.15.03-.22l1.76-3.92,19.91-39.27c.08-.16.26-.26.44-.25l12.09,1.11c.16.01.27.15.26.31,0,.03,0,.05-.02.08-2.08,5.57-4.53,11.88-7.34,18.91-4.42,11.06-9.81,19.76-22.19,22.89Z"/><path fill="currentColor" d="M515,398.17l-7-.91c-10.81-2.88-16.17-11.56-20.11-21.31-2.21-5.47-4.64-11.98-7.28-19.52-.06-.19.03-.4.21-.46.02,0,.05-.01.07-.02l11.22-1.54c.3-.04.6.12.73.38l22.16,43.36Z"/><path fill="currentColor" d="M383.7,363.5c.1.02.16.12.14.21,0,.04-.03.08-.06.11-4.6,4.08-9.91,5.47-15.92,4.19-4.51-.96-7.67-3.69-9.47-8.18-.11-.29.03-.61.32-.72.05-.02.11-.03.17-.04,3.32-.18,6.56-1.43,9.75-3.77.27-.21.67-.15.87.13.01.02.03.04.04.06,3.22,5.49,7.96,6.87,14.16,8.01Z"/><path fill="currentColor" d="M381.1,369.19c.74-.72,3.08-1.65,4.31-2.63,2.93-2.37,5.13-4.82,8.57-7.15.25-.16.57-.09.73.15.02.03.04.07.05.1,1.99,5.3,5.71,7.71,11.16,7.24.17-.01.31.11.32.28,0,.07-.01.13-.05.19-5.54,8.31-12.97,10.03-22.29,5.18-.27-.14-1.2-1.01-2.81-2.62-.2-.2-.21-.53,0-.74,0,0,0,0,0,0Z"/><path fill="currentColor" d="M428.24,388.85c1.1,1.59,2.5,2.95,4.2,4.07.13.08.17.25.09.38-.06.1-.18.15-.3.13-5.45-.99-9.62-3.85-12.52-8.58-2.3-3.34-4.17-7.01-5.59-11.02-.08-.21.03-.45.25-.53.04-.01.08-.02.12-.03,5.63-.31,10.79-1.26,14.08-6.2.03-.04.06-.09.07-.13l1.63-4c.07-.19.29-.28.48-.2.05.02.09.05.12.08l3.87,3.87c.2.2.2.52,0,.72-.06.06-.13.1-.2.13-4.68,1.49-6.98,4.41-8.56,8.78-1.56,4.31-.81,8.49,2.25,12.54Z"/><path fill="currentColor" d="M368.36,387.55c-2.87,2.96-6.29,4.77-10.25,5.42-.14.02-.28-.08-.3-.22-.01-.08.01-.16.06-.22,5.06-5.74,9.05-10.63,5.38-18.57-1.24-2.7-3.35-4.63-6.31-5.8l-1.55-.71c-.24-.11-.34-.39-.23-.63,0-.02.02-.03.02-.05l1.65-2.72c.14-.23.45-.31.68-.16.07.04.13.11.18.18,3.74,6.71,12.6,8.86,19.44,6.78.23-.07.48-.03.67.12l5.69,4.41c.3.23.4.65.23,1-2.2,4.31-6.09,4.7-10.75,5.29-.66.08-1.22.51-1.48,1.12-.72,1.66-1.76,3.25-3.13,4.76Z"/><path fill="currentColor" d="M398.03,392.25l-3.69,6.08c-.9-3.11-2.06-5.59-3.47-7.43-1.48-1.93-3.3-3.82-5.47-5.67-.51-.44-.98-1.26-1.4-2.48-.11-.32-.05-.67.16-.93l3.13-4.04c.25-.32.67-.47,1.06-.36,6.74,1.86,12.57-.05,17.48-5.74.45-.53,1.24-.59,1.77-.14.08.07.15.14.21.23l2.8,3.89c.62.86.63,2.01.04,2.88-2.08,3.08-3.44,4.81-4.06,5.18-3.51,2.1-6.36,4.94-8.55,8.52Z"/><path d="M886.27,135.14h58.04c26.45,0,45.65,3.76,57.6,11.29,11.95,7.53,17.92,19.5,17.92,35.91,0,11.14-2.62,20.28-7.85,27.43s-12.18,11.44-20.86,12.88v1.28c11.82,2.64,20.35,7.57,25.58,14.8,5.23,7.23,7.85,16.84,7.85,28.83,0,17.01-6.15,30.28-18.43,39.8-12.29,9.53-28.98,14.29-50.07,14.29h-69.78v-186.51ZM925.82,209h22.96c10.71,0,18.48-1.66,23.28-4.98,4.8-3.32,7.21-8.8,7.21-16.46,0-7.14-2.62-12.27-7.85-15.37-5.23-3.1-13.5-4.66-24.81-4.66h-20.79v41.46ZM925.82,240.38v48.6h25.77c10.89,0,18.92-2.08,24.11-6.25,5.19-4.17,7.78-10.54,7.78-19.14,0-15.48-11.06-23.22-33.17-23.22h-24.49Z"/><path d="M1112.58,250.08v71.57h-39.55v-186.51h54.34c25.34,0,44.1,4.61,56.26,13.84,12.16,9.23,18.24,23.24,18.24,42.03,0,10.97-3.02,20.73-9.06,29.28-6.04,8.55-14.59,15.24-25.64,20.09,28.06,41.93,46.35,69.02,54.86,81.26h-43.88l-44.52-71.57h-21.05ZM1112.58,217.93h12.76c12.5,0,21.73-2.08,27.68-6.25,5.95-4.17,8.93-10.72,8.93-19.65s-3.04-15.14-9.12-18.88c-6.08-3.74-15.5-5.61-28.26-5.61h-11.99v50.39Z"/><path d="M1370.92,321.64l-13.52-44.39h-67.99l-13.52,44.39h-42.61l65.82-187.27h48.35l66.08,187.27h-42.61ZM1347.96,244.08c-12.5-40.23-19.54-62.97-21.11-68.25-1.58-5.27-2.7-9.44-3.38-12.5-2.81,10.89-10.84,37.8-24.11,80.75h48.6Z"/><path d="M1613.69,321.64h-50.26l-81.13-141.09h-1.15c1.61,24.92,2.42,42.69,2.42,53.32v87.77h-35.34v-186.51h49.88l81.01,139.69h.89c-1.28-24.24-1.91-41.37-1.91-51.41v-88.28h35.59v186.51Z"/><path d="M1826.61,226.6c0,30.7-8.74,54.22-26.22,70.55-17.48,16.33-42.72,24.49-75.71,24.49h-52.81v-186.51h58.55c30.44,0,54.09,8.04,70.93,24.11,16.84,16.07,25.26,38.53,25.26,67.36ZM1785.54,227.62c0-40.06-17.69-60.08-53.07-60.08h-21.05v121.45h16.97c38.1,0,57.15-20.45,57.15-61.36Z"/><path fill="currentColor" d="M1982.64,321.64h-103.97v-186.51h103.97v19.26h-82.28v60.09h77.31v19.13h-77.31v68.63h82.28v19.39Z"/><path fill="currentColor" d="M2159.33,321.64h-24.62l-50.13-82.03-51.03,82.03h-22.96l62-97.46-57.79-89.04h23.98l46.31,73.86,46.69-73.86h23.09l-57.79,88.28,62.25,98.23Z"/><path fill="currentColor" d="M2315.48,189.48c0,18.88-6.44,33.4-19.33,43.56-12.89,10.16-31.32,15.24-55.3,15.24h-21.94v73.35h-21.69v-186.51h48.35c46.6,0,69.91,18.11,69.91,54.34ZM2218.91,229.67h19.52c19.22,0,33.12-3.1,41.72-9.31,8.59-6.21,12.89-16.16,12.89-29.85,0-12.33-4.04-21.51-12.12-27.55-8.08-6.04-20.67-9.06-37.76-9.06h-24.24v75.78Z"/><path fill="currentColor" d="M2469.72,321.64h-103.97v-186.51h103.97v19.26h-82.28v60.09h77.31v19.13h-77.31v68.63h82.28v19.39Z"/><path fill="currentColor" d="M2543.97,244.08v77.56h-21.69v-186.51h51.15c22.88,0,39.78,4.38,50.71,13.14,10.93,8.76,16.39,21.94,16.39,39.55,0,24.66-12.5,41.33-37.51,50.01l50.65,83.81h-25.64l-45.16-77.56h-38.91ZM2543.97,225.46h29.72c15.31,0,26.53-3.04,33.68-9.12,7.14-6.08,10.72-15.2,10.72-27.36s-3.64-21.22-10.91-26.66c-7.27-5.44-18.94-8.16-35.02-8.16h-28.19v71.31Z"/><path fill="currentColor" d="M2752.43,321.64h-21.69v-167.24h-59.06v-19.26h139.82v19.26h-59.06v167.24Z"/><path fill="currentColor" d="M2956.04,272.02c0,16.41-5.95,29.21-17.86,38.4-11.91,9.18-28.06,13.78-48.48,13.78-22.11,0-39.12-2.85-51.03-8.55v-20.92c7.65,3.23,15.99,5.78,25,7.65,9.01,1.87,17.94,2.81,26.79,2.81,14.46,0,25.34-2.74,32.66-8.23,7.31-5.48,10.97-13.12,10.97-22.9,0-6.46-1.3-11.76-3.89-15.88-2.59-4.12-6.93-7.93-13.01-11.42-6.08-3.49-15.33-7.44-27.75-11.86-17.35-6.21-29.74-13.56-37.19-22.07-7.44-8.5-11.16-19.6-11.16-33.3,0-14.37,5.4-25.81,16.2-34.32,10.8-8.5,25.09-12.76,42.86-12.76s35.59,3.4,51.15,10.21l-6.76,18.88c-15.39-6.46-30.36-9.69-44.91-9.69-11.48,0-20.45,2.47-26.92,7.4-6.46,4.93-9.7,11.78-9.7,20.54,0,6.46,1.19,11.76,3.57,15.88,2.38,4.13,6.4,7.91,12.06,11.35,5.65,3.44,14.31,7.25,25.96,11.42,19.56,6.97,33.02,14.46,40.38,22.45,7.35,8,11.03,18.37,11.03,31.13Z"/></g></svg>