<?xml version="1.0" encoding="UTF-8"?><svg id="Layer_2" xmlns="http://www.w3.org/2000/svg" viewBox="0 0 2956.04 398.69"><defs><style>.cls-1{fill:#cf28bb;}.cls-2{fill:#f4258b;}.cls-3{fill:#424242;}</style></defs><path class="cls-2" d="M339.34,30.84h24.44c.25,0,.45.2.45.44,0,.14-.07.29-.19.37l-19.76,14.37c-.15.11-.23.31-.17.5l7.55,23.25c.07.24-.07.48-.31.56-.13.04-.27.01-.38-.06l-19.78-14.34c-.15-.11-.37-.11-.54,0l-19.78,14.34c-.21.14-.48.09-.63-.11-.07-.11-.1-.25-.06-.38l7.55-23.25c.05-.19-.01-.38-.17-.5l-19.76-14.37c-.21-.14-.25-.42-.1-.63.08-.12.23-.19.37-.19h24.44c.2,0,.36-.12.42-.31l7.56-23.24c.08-.24.34-.35.58-.27.12.04.22.14.27.27l7.56,23.24c.06.19.23.31.42.31Z"/><path class="cls-2" d="M246.23,51.53l19.99-4.58c.27-.06.53.11.59.37.03.15,0,.31-.1.42l-13.66,15.3c-.14.17-.17.4-.04.59l10.54,17.58c.13.24.06.54-.18.67-.13.08-.3.09-.44.03l-18.78-8.24c-.2-.08-.42-.03-.57.12l-13.48,15.46c-.18.21-.5.23-.69.04-.12-.1-.18-.27-.17-.42l2.04-20.4c.02-.22-.09-.42-.3-.51l-18.86-8.03c-.26-.1-.38-.38-.28-.64.06-.15.2-.27.36-.31l20.05-4.36c.21-.05.36-.23.38-.43l1.82-20.42c.02-.27.26-.47.53-.45.15.01.3.1.38.24l10.34,17.71c.1.19.32.29.54.24v.03Z"/><path class="cls-2" d="M428.91,54.69l19.76,4.23c.28.06.45.34.39.62-.03.17-.14.3-.3.36l-18.51,8.12c-.21.09-.33.3-.31.52l2.08,20.1c.03.29-.18.55-.46.57-.17.02-.33-.04-.43-.17l-13.44-15.1c-.14-.18-.39-.24-.61-.14l-18.47,8.2c-.27.11-.57,0-.68-.27-.06-.14-.05-.32.02-.46l10.22-17.44c.11-.2.08-.45-.07-.62l-13.51-15.03c-.2-.21-.19-.54.03-.73.12-.11.31-.17.47-.12l19.74,4.31c.22.05.44-.04.57-.24l10.12-17.5c.14-.25.46-.34.71-.2.14.08.25.24.26.4l2,20.11c.02.23.19.4.41.45v.02Z"/><path class="cls-2" d="M172.7,91.77l15.18,13.33c.19.17.21.44.05.64-.1.11-.25.18-.4.15l-20.05-2.56c-.21-.03-.4.08-.47.27l-7.99,18.55c-.09.23-.36.34-.59.24-.14-.06-.24-.19-.27-.34l-3.76-19.84c-.03-.2-.2-.34-.39-.36l-20.13-1.87c-.25-.02-.42-.25-.4-.5.01-.14.1-.28.24-.35l17.73-9.71c.18-.09.27-.3.23-.5l-4.45-19.72c-.05-.25.1-.48.35-.54.14-.03.29.01.39.11l14.71,13.86c.14.13.36.15.54.05l17.39-10.31c.22-.12.5-.05.61.17.07.12.08.28.02.41l-8.64,18.27c-.08.19-.04.4.11.54h-.01Z"/><path class="cls-2" d="M509.77,89.42l17.05,9.65c.22.13.29.41.17.64-.07.12-.2.21-.33.22l-19.48,2.16c-.2.02-.35.18-.39.36l-3.91,19.2c-.05.25-.3.41-.56.35-.14-.03-.26-.12-.32-.26l-8.06-17.86c-.08-.19-.28-.29-.47-.27l-19.47,2.22c-.26.03-.48-.15-.52-.41-.02-.14.04-.29.14-.39l14.49-13.18c.15-.13.21-.36.11-.55l-8.13-17.82c-.1-.24,0-.51.23-.62.13-.06.3-.05.43.02l17.02,9.71c.18.09.38.07.54-.05l14.45-13.24c.19-.18.47-.17.66.02.1.11.15.27.11.42l-3.98,19.17c-.04.2.05.4.23.51h.01Z"/><ellipse class="cls-2" cx="451.25" cy="40.64" rx=".11" ry=".35" transform="translate(117.5 347.05) rotate(-47.7)"/><path class="cls-3" d="M640.37,98.38l-7.53,4.52c1.96-2.34,4.47-3.85,7.53-4.52Z"/><path class="cls-3" d="M612.31,115.35l-7.57,4.54c1.88-2.34,4.41-3.86,7.57-4.54Z"/><path class="cls-1" d="M204.36,214.81c-3.05,1.81-5.11,4.52-6.19,8.15-.59,1.99-.89,3-.9,3.02-.09.24-.36.35-.6.26-.01,0-.03-.01-.04-.02-.86-.45-1.8-1.21-2.57-1.61-31.1-16.22-50.48-26.34-58.16-30.36-7.57-3.96-12.08-6.44-13.52-7.42-7.21-5-14.13-12.7-16.97-21.2-2.77-8.22-3.68-15.85-1.6-24.51.02-.08.09-.13.18-.12.02,0,.04.01.06.02,12.88,8.15,19.4,12.29,19.58,12.4,26.67,16.91,46.01,29.25,58.02,37.01,11.27,7.29,22.33,13.62,29.84,24.22,3.33,4.7,8.47,12.97,12.04,18.7,3.14,5.05,6.57,7.36,11.25,10.73,5.18,3.74,11.34,4.73,17.85,4.22.63-.05,1.23.29,1.5.87,1.49,3.12,3.59,6.05,6.32,8.77,3.76,3.77,7.96,5.55,13.06,4.31.29-.07.59.11.66.4.03.14,0,.3-.07.42-3.93,5.92-9.09,8.81-15.47,8.68-8.93-.19-12.87-5.31-16.18-12.81-.06-.15-.23-.23-.37-.18-.11.04-.2.15-.19.29-.13,6.39,2.2,11.36,7.01,14.91.72.53,2.6,1.29,3.61,2.03.23.18.38.41.45.69l1.54,6.24c.04.2-.07.38-.27.42-.04,0-.07.01-.11,0-7.65-.66-12.4-7.13-13.52-14.53-.03-.18-.2-.3-.38-.28-.11.02-.21.09-.25.2-.97,2.39-1.35,5.04-1.16,7.94.01.2-.14.37-.34.38h-.02c-4.32.04-12.06-1.27-14.99-5.08-2.25-2.91-3.49-6.19-3.71-9.83-.02-.43.31-.82.74-.84.15,0,.3.03.43.1,6.9,3.93,13.01,2.95,18.34-2.95.09-.1.07-.27-.03-.36-.06-.05-.15-.07-.24-.05-11.09,4.31-21.27-2.6-20.61-14.61.05-1.05.12-2.03.22-2.96,0-.14-.1-.28-.25-.3-.1,0-.21.04-.25.13-3.35,5.76-3.33,11.49.06,17.19.1.15.05.37-.1.46-.06.04-.14.06-.23.05-6.49-.74-9.9-3.15-13.13-8.8-2-3.5-1.79-7.12-1.68-11.37,0-.2.17-.35.37-.35.05,0,.1.01.15.04,4.11,2.03,12.17,3.24,15.6-.64.11-.13.1-.34-.03-.45-.07-.06-.17-.09-.27-.07-13.19,2.4-20.06-10.49-14.18-21.28.07-.11.03-.26-.07-.32-.08-.05-.18-.05-.25,0h0Z"/><path class="cls-1" d="M545.89,141.88c1.57,5.08,1.69,10.41.38,15.99-1.5,6.41-3.17,12.2-6.66,17.1-5.64,7.91-13.07,12.59-22.12,17.32-23.9,12.47-42.26,22.08-55.07,28.85-3.32,1.76-6.74,3.49-10.24,5.18-.2.09-.43,0-.53-.19-.02-.05-.04-.11-.04-.17,0-.22.01-.55.04-.99.22-3.08-4.1-8.52-6.4-10.69-.1-.1-.28-.11-.38,0-.07.07-.1.19-.06.29,1.31,4.56,1.95,6.66,2.07,10.45.24,7.13-7.39,12.37-13.98,11.71-.75-.07-1.67-.2-2.73-.37-.13-.03-.28.05-.31.2-.02.11.03.23.12.28,5.32,3.53,10.62,3.6,15.9.21.21-.13.5-.07.63.14.03.05.05.11.06.17,1.67,10.16-3.67,19.68-14.38,20.92-.27.03-.51-.15-.54-.41-.01-.1,0-.22.06-.31,3.48-5.9,3.21-11.64-.82-17.2-.05-.09-.17-.11-.26-.06-.07.04-.11.14-.08.23,1.85,7.78-.52,15.48-8.73,18.14-3.73,1.21-7.46,1.05-11.23-.46-.15-.06-.33,0-.39.17-.04.1-.02.23.05.32,3.68,4.32,8.22,5.94,13.63,4.85,1.8-.37,3.51-1.31,5.4-2.17.31-.14.68,0,.83.31.05.11.07.25.05.37-1.74,10.39-8.08,15.52-19,15.38-.31,0-.57-.24-.61-.55l-1.23-8.96c-.02-.11-.13-.2-.25-.18-.08.01-.15.07-.18.17-.82,3.26-1.32,5.17-1.51,5.73-1.72,5.03-6.38,10.81-12.16,10-.27-.04-.46-.29-.42-.57,0-.04.02-.09.04-.13.73-1.66,1.16-3.68,1.27-6.07.02-.35.25-.66.57-.8,3.88-1.65,7.08-3.66,8.95-7.54,1.55-3.23,2.18-6.48,1.91-9.77-.03-.2-.21-.32-.39-.3-.13.02-.25.11-.29.24-2.25,8.63-7.89,13.03-16.95,13.21-5.94.12-10.83-4.48-14.11-9.07-.11-.15-.08-.37.06-.48.07-.06.18-.08.27-.07,9.3,1.26,16.38-4.55,19.13-13.02.13-.4.5-.68.92-.7l8.3-.4c7.9-1.89,14.33-5.75,19.29-11.57,1.19-1.39,3.2-4.42,6.03-9.07,3.41-5.61,6.7-11.75,10.97-16.55,4.3-4.83,9.58-9.26,15.8-13.27,32.76-21.12,60.84-39.04,84.25-53.74,1.45-.91,2.93-1.85,4.42-2.81.34.14.56.4.65.78v-.03Z"/><path class="cls-3" d="M449.13,150.17l-.23,4.05c0,.06-.05.11-.11.11s-.1-.04-.1-.1c-.15-1.33-.1-2.67.14-4.03.1,0,.21-.01.3-.02h0Z"/><path class="cls-1" d="M384.46,169.57c-3.69-2.42-7.21-2.61-10.56-.55-10.39,6.41-15.79,21.44-16.85,32.86-.6,6.53.28,12.61,2.64,18.21,5.77,13.71,18.41,23.48,32.21,28.04.35.12.55.51.42.87-.02.05-.04.09-.06.13-4.19,6.72-12.34,11.27-19.91,6.26-5.53-3.66-10.07-8.31-13.64-13.93-.07-.11-.23-.15-.35-.08h-.02c-.11.06-.15.21-.1.33,3.54,8.08,8.59,14.71,15.12,19.91.29.23.36.63.19.95-1.64,3.04-4.12,6.34-7.39,8.05-.28.14-.59.21-.91.17-4.89-.65-11.22-10.17-13.47-14.43-4.75-8.96-8.18-18.63-10.31-29.02-.02-.13-.13-.24-.28-.22s-.24.13-.22.28h0c.36,16.45,5.15,31.37,14.37,44.76,1.67,2.45,3.8,4.28,6.12,6.18.29.24.35.66.13.97-3.96,5.69-9.4,9.05-16.7,8.14-10.18-1.27-15.52-9.49-18.08-18.75-.42-1.56-.73-2.55-.93-2.97-.05-.11-.19-.17-.3-.12-.07.03-.13.1-.13.19-1.65,11.82-9.59,21.9-22.19,21.75-5.91-.07-10.31-2.51-13.44-7.25-.44-.67-.27-1.57.39-2.02,1.49-1.01,2.91-2.36,4.24-4.05,10.95-13.74,16.33-29.51,16.16-47.32,0-.03-.02-.06-.05-.06s-.06.02-.06.05c-1.23,7.11-3.31,14.03-6.26,20.77-3.87,8.84-7.91,16.54-14.97,22.33-.75.61-1.79.98-3.13,1.11-.38.04-.76-.03-1.11-.21-3.35-1.67-5.8-4.48-7.32-8.41-.13-.36-.02-.76.28-.99,6.83-5.19,12-11.66,15.53-19.41.05-.11,0-.26-.1-.32h0c-.1-.06-.23-.03-.29.06-3.55,5.21-8.08,9.63-13.61,13.25-5.08,3.31-10.17,3.29-15.3-.05-1.83-1.2-3.94-3.5-6.35-6.92,6.56-1.03,13.04-3.14,19.46-6.32,13.02-6.44,23.43-16.81,27.43-30.87,1.94-6.83,2.53-13.8,1.79-20.89-.04-.32-.32-.55-.64-.52-9.18.7-15.59-3.04-19.21-11.24-.06-.14,0-.32.14-.38.05-.02.11-.03.18-.02,16.56,3.06,26.32-9.74,38.71-17.61,5.22-3.32,17.68-8.5,23.84-4.4,1.55,1.03,2.82,2.22,3.82,3.57.24.32.67.4,1.01.2,5.16-3.14,17.09-7.96,22.96-4.77,3.36,1.83,5.75,4.31,7.15,7.47,1.33,3.01,1.31,5.43-.07,7.25l.02-.02ZM337.44,174.27c3.14-2.69,5.31-4.68,6.54-6,2-2.12,4.35-3.89,7.06-5.31.26-.14.35-.46.22-.71-.08-.14-.23-.25-.39-.27-1.97-.25-4.02-.17-6.14.23-3.35.63-4.21,2.99-5,6.35-.41,1.76-1.31,3.53-2.7,5.3-.11.11-.1.3,0,.41s.3.1.41,0h.01Z"/><path class="cls-1" d="M198.13,244.01c-.01.13-.13.23-.27.21-.02,0-.04,0-.05-.01-5.74-2.15-12.4-4.45-19.98-6.87-12.92-4.15-25.8-8.27-38.63-12.36-3.23-1.03-4.95-1.58-5.15-1.63-17.43-5.15-31.25-18.21-32.01-37.34,0-.31.24-.58.55-.59.09,0,.19.02.27.05l94.5,44.43c.37.18.69.46.9.83l2.36,4.09c.27.48.27,1.07,0,1.55-1.42,2.52-2.25,5.08-2.48,7.66h-.01Z"/><path class="cls-1" d="M451.2,244.17c-.23-2.59-1.05-5.15-2.49-7.68-.28-.47-.28-1.07,0-1.56l2.36-4.1c.21-.36.53-.65.9-.83l94.78-44.62c.28-.13.62-.02.75.27.04.08.06.18.05.28-.75,19.18-14.6,32.3-32.08,37.48-.2.05-1.92.61-5.17,1.64-12.88,4.12-25.79,8.26-38.75,12.41-7.61,2.45-14.28,4.75-20.04,6.9-.12.05-.27-.01-.32-.13,0-.02-.01-.04-.01-.06h.01Z"/><path class="cls-1" d="M204.45,259.03c-.4.08-.99.06-1.77-.05-23.87-3.44-42.27-6.03-55.18-7.75-1.5-.21-5.2-.82-11.12-1.84-13.91-2.42-26.64-11.93-30.2-26.1-.06-.26.08-.52.34-.59.08-.02.17-.02.25,0l90.49,24.21c.62.17,1.08.67,1.21,1.3.73,3.8,2.78,7.24,6.12,10.35.1.1.11.27.01.37-.04.04-.09.07-.14.08h.01Z"/><path class="cls-1" d="M445.15,258.79c2.71-3.24,5-6.13,5.4-10.49.06-.63.51-1.16,1.12-1.31,5.24-1.28,14.69-3.78,28.34-7.48,35.77-9.7,55.17-14.91,58.2-15.62,1.53-.36,3.32-.6,4.83-.87.11-.02.23.05.26.18v.07c-1.71,11.93-12.35,20.63-23.12,24.35-1.5.52-5.15,1.34-10.96,2.48-3.61.7-7.33,1.3-11.15,1.8-15.78,2.01-33.32,4.47-52.65,7.37-.15.02-.3-.09-.32-.24-.01-.07.01-.15.06-.22h0Z"/><path class="cls-1" d="M219.49,274.23c-17.17.71-35.83,1.76-55.97,3.17-5.22.36-9.71.38-13.47.05-12.33-1.07-21.67-6.76-28.02-17.05-.95-1.54-1.63-3.21-2.03-5-.07-.32.13-.63.44-.69.06-.01.11-.02.18-.01l95.39,8.74c.22.01.39.2.38.41-.03,3.63,1.07,6.92,3.32,9.86.11.13.08.34-.05.45-.05.04-.12.06-.2.07h.02Z"/><path class="cls-1" d="M429.97,274.17c-.19-.01-.32-.17-.31-.34,0-.06.03-.12.06-.18,2.25-2.94,3.36-6.23,3.34-9.88,0-.22.17-.4.38-.41l95.57-8.63c.32-.03.61.21.63.54,0,.06,0,.11-.01.18-.4,1.8-1.08,3.47-2.03,5-6.38,10.3-15.74,15.98-28.09,17.05-3.76.32-8.24.3-13.48-.07-20.17-1.43-38.86-2.52-56.06-3.25h-.01Z"/><path class="cls-1" d="M256.56,276.88c8.24-.34,13.68-2.63,18.2-9.58.11-.18.35-.22.53-.1.05.04.09.08.12.14,2.48,5.2,4.9,9.12,10.72,11.05.23.07.34.31.27.54-.01.04-.04.09-.06.12-5.3,7.23-14.76,10.85-23.03,6.37-3.63-1.97-6.02-4.63-7.15-8-.07-.23.05-.46.27-.54.04-.01.07-.02.11-.02h.02Z"/><path class="cls-1" d="M393.45,276.57c.21-.01.39.14.4.35,0,.05,0,.09-.02.14-1.01,3.38-3.03,5.94-6.06,7.68-6.79,3.89-13.48,3.55-20.06-1.01-1.39-.97-2.49-2.24-3.26-3.79-.28-.54-.1-1.2.39-1.54l5.45-3.69c.23-.15.42-.35.58-.59l3.98-6.07c.14-.23.45-.29.68-.14.05.04.1.08.14.14,4.12,6.24,10.04,9.08,17.76,8.51h.01Z"/><path class="cls-1" d="M271.95,296.84c-.05.12-.11.38-.17.79-.04.27-.18.52-.42.75-2.2,2.18-4.91,3.84-8.13,4.98-8.51,3-14.78.55-18.79-7.39-.3-.58-.23-1.27.17-1.77l2.25-2.91c.08-.08.08-.21,0-.28-.08-.08-.21-.08-.28,0h0l-2.77,2.21c-.1.08-.22.14-.34.19-10.47,4-16.79-2.07-19.91-11.35-.08-.24-.34-.36-.58-.28-.17.05-.28.2-.3.37l-.63,4.51c-.04.32-.29.57-.61.63-1.23.24-12.25,3.22-33.03,8.95-6.02,1.66-11.39,2.73-17.83,4.16-5.99,1.32-12.09,1.04-18.34-.85-6.36-1.92-13.45-7.25-15.27-14.25-.05-.21.07-.41.28-.47.03,0,.07-.01.1-.01,2.48.09,4.67.05,6.59-.13,17.49-1.67,29.44-2.79,35.85-3.33,13.59-1.16,30.23-3.57,41.98-4.34.56-.04,1.28.23,2.16.8,4.44,2.9,10.07,2.93,14.82.75.28-.13.62-.01.77.28,2.61,5.06,7.94,9.65,13.88,9.84,2.23.07,3.75.17,4.56.28.46.06.9.22,1.29.46,4.81,2.92,9.1,4.25,12.89,4.01,3.33-.22,7.02-1.71,11.06-4.49.85-.59,2.74-3.17,3.87-4.1.23-.18.55-.14.73.08.02.02.04.05.05.08,2.33,4.5,6.4,7.45,12.18,8.86.5.12.79.62.67,1.1-.01.06-.03.11-.06.17-5.15,11.3-21.67,12.23-28.06,1.64-.1-.18-.32-.23-.5-.12-.06.04-.11.09-.14.17h0Z"/><path class="cls-1" d="M402.24,290.79l2.41,2.91c.55.66.67,1.58.29,2.35-3.63,7.49-9.53,9.98-17.69,7.45-2.8-.86-5.9-3.01-9.33-6.46-.18-.18-.46-.18-.65,0-.04.04-.65.71-1.82,2-1.64,1.82-3.8,3.21-6.47,4.19-6.55,2.4-12.35,1.02-17.41-4.16-1.15-1.18-1.99-2.36-2.54-3.56-.15-.34,0-.73.33-.89.01,0,.03-.01.04-.02,5.05-1.85,10.47-4.12,12.43-9.94.08-.26.36-.4.62-.31.09.03.18.09.24.18,1.83,2.37,3.75,4.77,6.22,6.15,7.48,4.2,14.87,3.69,22.18-1.5.44-.32.99-.46,1.54-.41,8.04.74,13.72-2.58,17.05-9.98.12-.27.43-.38.7-.27,5.32,2.36,10.64,1.98,15.94-1.16.3-.18.63-.27.98-.28,1.62-.04,3.62.08,6.01.37,27.27,3.28,53.5,5.82,78.68,7.63.28.02.48.26.46.54v.06c-1.81,9.21-13.28,14.58-21.82,15.18-5.3.36-9.41.21-12.33-.47-15.15-3.56-24.88-6.45-50.13-13.2-.29-.07-.52-.31-.59-.61l-1.27-5.19c-.06-.21-.27-.34-.48-.29-.14.04-.26.15-.28.31-1.63,9.47-9.76,15.87-19.26,12.06-.66-.27-1.89-1.27-3.69-3.02-.1-.09-.26-.09-.36,0v.02c-.07.1-.07.23,0,.32h-.01Z"/><path class="cls-1" d="M304.59,295.02c-.11-.26.01-.56.27-.67.06-.02.12-.04.2-.04,9.61-.31,15.2-4.65,20.59-12.17.14-.19.4-.23.6-.08.05.04.09.08.12.14,3.97,7.62,9.98,10.67,18.26,12.21.5.09.83.57.73,1.06-.02.08-.04.17-.08.25-4.54,8.99-12,13.16-22.39,12.51-8.77-.56-14.86-4.95-18.29-13.21h-.01Z"/><path class="cls-1" d="M230.59,297.62c.11.05.15.2.1.3-.02.04-.06.08-.1.1-12.73,6.88-23.1,12.42-31.14,16.62-14.39,7.52-29.19,9.21-40.93-3.69-.08-.08-.08-.22,0-.29.03-.03.06-.04.09-.05,5.14-1.22,10.32-2.63,15.55-4.24,20.28-6.24,36.49-11.31,48.61-15.22.39-.12.82.03,1.04.38,1.69,2.61,3.94,4.64,6.76,6.1h.01Z"/><path class="cls-1" d="M418.81,297.51c2.83-1.47,5.09-3.51,6.79-6.14.23-.35.66-.51,1.05-.38,12.2,3.94,28.49,9.05,48.89,15.33,5.26,1.62,10.47,3.04,15.64,4.27.11.02.19.13.15.25,0,.04-.03.07-.05.1-11.8,12.99-26.7,11.27-41.16,3.7-8.08-4.23-18.52-9.81-31.32-16.74-.11-.06-.15-.21-.09-.32.02-.04.05-.07.09-.09h0Z"/><path class="cls-1" d="M234.29,302.02c-1.3,1.3-1.83,3.59-1.57,6.87.05.69-.23,1.36-.74,1.82-7.49,6.36-16.05,15.12-25.88,21.1-6.2,3.79-15.9,4.74-22.02-.11-.21-.17-.24-.46-.07-.67.03-.04.07-.07.11-.1l50.09-31.38c.21-.13.42-.24.65-.33l8.31-3.24c.06-.02.12,0,.14.07v.05c-1.05,6.93,3.87,9.47,8.79,12.7.38.26.65.65.75,1.09.37,1.63.67,2.87.9,3.69,1.23,4.38,5.37,7.79,9.53,9.43.28.11.41.42.3.7-.01.03-.02.05-.04.07-4.64,7.89-7.09,12.02-7.33,12.38-3.22,4.79-9.1,10.23-14.84,11.79-2.69.73-5.96.89-9.82.45-.09,0-.15-.08-.14-.18,0-.03.01-.05.03-.08,5.16-7.71,10.04-16.14,14.64-25.29.05-.11.2-.17.31-.11.04.02.07.05.1.09,3.33,5.42,9.39,8.97,14.43,2.92.1-.12.09-.31-.03-.41-.07-.06-.17-.08-.26-.07-2.23.51-4.59.42-7.08-.25-6.26-1.69-5.95-6.29-7.09-11.68-.06-.29-.32-.5-.61-.5-.22,0-.65.05-1.28.13-6.4.86-10.24-2.47-10.21-8.81,0-.61.38-1.49.38-2,0-.15-.13-.28-.29-.28-.07,0-.14.03-.2.08l.02.03Z"/><path class="cls-1" d="M403.26,315.05c-1.6,4.88-1.76,9.05-7.76,10.17-2.42.45-4.7.35-6.79-.29-.23-.06-.47.06-.54.3-.02.09-.02.19,0,.27.38,1,2.02,2.37,3.11,2.74,4.82,1.64,8.62.13,11.37-4.53.12-.22.4-.29.62-.15.07.04.13.11.18.19,4.22,8.21,9,16.18,14.34,23.91.17.24.1.57-.13.74-.07.05-.14.08-.23.09-10.53,1.47-19.39-5.05-24.46-13.14-2.42-3.87-4.67-7.62-6.74-11.24-.25-.43-.09-.99.34-1.24.03-.02.06-.03.1-.05,5.33-2.18,10.01-6.88,10.16-13.14.01-.53.33-1,.82-1.22,4.33-1.91,9.26-6.43,9.47-11.58.02-.22.21-.38.42-.36.07,0,.13.03.19.06.97.66,2.78,1.28,5.44,1.87.71.15,1.38.44,1.99.85,8.51,5.74,15.06,9.98,19.64,12.71,10.88,6.5,19.38,11.84,25.51,15.99,1.19.82,2.93,1.76,5.22,2.87.28.13.4.47.27.75-.05.1-.13.2-.24.25-7.05,3.8-14.14,3.84-21.27.13-3.35-1.74-7.17-4.46-11.47-8.15-8-6.87-13.31-11.5-15.92-13.9-.24-.22-.35-.54-.3-.86.39-2.35.21-4.54-.55-6.55-.06-.18-.26-.27-.43-.21-.14.05-.24.19-.23.33.11,7.99-3.61,11.41-11.15,10.29-.27-.04-.51.13-.55.4-.02.17.04.33.17.44,3.06,2.69,6.22,2.83,9.45.39.44-.34.99-.73,1.64-1.17.25-.15.57-.11.75.1,3.49,4.01,8.01,8.84,13.55,14.51,4.75,4.85,9.23,9.73,14.38,13.69.25.2.29.56.09.8-.04.05-.08.09-.13.12-6.48,4.23-15.08,3.01-20.7-1.33-1.39-1.07-3.32-3.35-5.78-6.85-5.79-8.2-10.23-14.58-13.31-19.14-.1-.14-.29-.18-.43-.07-.05.04-.09.09-.11.14v.02Z"/><path class="cls-1" d="M280.89,312.78c-8.08,7.84-19.36,8.08-25.34-2.61-.14-.25-.05-.57.2-.7.08-.04.18-.07.27-.06,5.13.08,9.28-1.79,12.42-5.6,1.59-1.92,2.7-3.49,3.33-4.7.07-.14.25-.21.39-.13.08.04.13.11.15.2,1.74,6.14,5.67,9.63,12.18,10.33,7.1.76,12.81-1.95,17.1-8.14.13-.2.41-.24.61-.1.06.04.1.1.14.17,2.48,5.25,6.43,8.81,11.89,10.68.36.12.56.51.45.87-1.07,3.71-3.46,6.38-7.17,7.99-8.7,3.78-15.81,2.11-21.32-5.02-.85-1.09-1.31-2.58-2-3.21-.12-.11-.32-.1-.44.02-.05.06-.08.13-.08.21.21,8.02,4.28,12.99,12.25,14.92.27.06.43.33.37.6-.02.08-.06.15-.11.22-9.71,10.59-24.96,8.83-30.87-4.71-.09-.2,0-.43.21-.53.05-.02.11-.03.17-.03,7.57.1,12.74-3.39,15.5-10.48.03-.08,0-.18-.09-.21-.06-.02-.12,0-.18.04h-.01Z"/><path class="cls-1" d="M368.5,312.74c2.28,7.17,7.4,10.74,15.35,10.72.22,0,.39.18.4.4,0,.05,0,.1-.03.15-3.6,8.6-9.98,12.35-19.13,11.27-4.5-.53-8.22-2.71-11.15-6.54-.17-.21-.12-.52.08-.68.05-.04.1-.06.17-.08,7.34-2.29,12.08-7.23,11.94-15.2,0-.12-.1-.22-.22-.22-.07,0-.13.03-.18.09-4.31,6.14-8.48,10.31-16.43,10.2-7.11-.1-11.65-4.06-14.69-9.94-.15-.31-.04-.68.26-.84.04-.02.09-.04.13-.05,5.97-1.54,10.14-5.2,12.5-11,.08-.22.33-.32.54-.23.08.03.14.09.2.17,6.75,10.82,25.29,13.05,29.17-1.85.05-.2.25-.32.44-.27.11.03.21.11.25.22,2.8,6.76,8.09,10.2,15.88,10.31.15,0,.27.12.27.28,0,.04,0,.07-.02.11-4.33,9.37-14.9,11.64-22.72,4.92-1.55-1.33-2.44-2.07-2.65-2.24-.1-.08-.25-.06-.33.05-.05.06-.06.14-.04.23h.02Z"/><path class="cls-1" d="M245.28,314.57c.11-.08.26-.05.34.05.06.08.06.19,0,.27-4.58,7.12-8.43,12.98-11.53,17.57-1.56,2.32-3.46,4.75-5.69,7.26-4.98,5.61-15.05,6.61-21.9,2.99-.35-.19-.48-.63-.29-.98.03-.06.08-.12.13-.18,9.55-9.14,18.67-18.65,27.37-28.51.19-.21.5-.23.71-.05.25.23.92.74,2.01,1.54,3.03,2.23,5.97,2.24,8.84.03h-.01Z"/><path class="cls-1" d="M336.34,323.19c-4.68,7.78-13.22,12.69-20.3,4.09-1.27-1.55-2.17-3.06-2.68-4.55-.12-.34-.04-.72.21-.98,2.03-2.14,3.8-4.82,5.29-8.06.17-.35.55-.55.93-.47,3.47.64,6.85.62,10.16-.05.39-.08.77.17.88.55.87,3.29,2.65,6.13,5.36,8.5.29.25.36.66.17.98h-.01Z"/><path class="cls-1" d="M311.3,323.69c.12-.12.33-.12.45,0,.05.05.09.13.09.21.47,5.3,3.15,9.26,8.04,11.86,1.07.57,2.25.8,3.56.71.23-.01.41.15.43.37,0,.09-.02.19-.07.26-4.6,6.48-8.95,11.44-17.55,10.41-6.02-.71-10.42-4.09-13.22-10.1-.13-.29-.06-.64.18-.86,2.64-2.39,4.75-4.96,6.32-7.72.33-.58.95-.95,1.61-.96,4.09-.1,7.47-1.51,10.16-4.19h0Z"/><path class="cls-1" d="M339.29,324.59c3.57,2.76,7.13,4.06,10.66,3.91.23-.01.44.09.58.28l5.58,7.77c.35.48.38,1.12.1,1.65-3.6,6.82-9.09,9.88-16.46,9.14-6.14-.61-10.61-4.34-13.58-9.5-.22-.37-.09-.85.28-1.06.06-.04.13-.06.21-.08,6.44-1.62,9.51-5.92,11.87-11.91.1-.26.39-.39.65-.29.04.02.09.04.12.07v.02Z"/><path class="cls-1" d="M260.02,341.23c.04-.1,4.02-13.22,4.14-13.18.05.02.1.07.12.13,1.56,4.8,4.21,8.08,7.98,9.84.47.23.78.7.78,1.24.02,9.79,4.46,15.93,13.32,18.42.25.07.38.33.31.58,0,.03-.02.05-.03.07-.5,1.01-1.21,1.69-2.15,2.03-6.25,2.29-11.62,1.01-16.1-3.82"/><path class="cls-1" d="M272.46,344.93c-2.6,6.76-7.13,11.71-13.41,15.03h.01c-1.73.88-3.17,1.19-4.28.93.77-2.85,1.5-5.68,2.18-8.47"/><path class="cls-1" d="M387.22,347.45c-.06,0-1.11,2.99,5.72,9.72-.94.68-13.11,1.59-14.45,2.37-4.97,2.88-9.8,2.58-14.47-.87-.26-.19-.31-.55-.11-.8.07-.09.18-.17.29-.21,9.16-2.76,11.75-10.15,12.87-18.95.04-.32.23-.6.51-.75,3.71-2.06,6.32-5.35,7.8-9.84.04-.12.18-.2.3-.15.07.02.12.07.14.13.06.12.53,1.56,1.4,4.3"/><path class="cls-1" d="M275.07,339.7c1.91.39,2.93.61,3.09.63,5.11.93,9.58.1,13.39-2.47.15-.11.36-.07.47.09.04.05.06.11.06.19.31,5.62,3.08,9.77,8.31,12.44.18.09.25.3.17.48-.03.07-.09.12-.17.17-8.39,4.31-18.65,2.49-23.53-6.25-1.24-2.22-2.02-3.77-2.34-4.65-.09-.25.04-.52.28-.61.08-.03.17-.03.26-.02h.01Z"/><path class="cls-1" d="M374.93,340.12c-1.41,3.38-2.8,5.85-4.13,7.42-4,4.7-9.34,6.6-15.99,5.71-2.49-.33-4.27-.99-5.35-1.98-.17-.15-.18-.41-.02-.58.03-.04.07-.07.12-.09,4.96-2.42,7.87-6.4,8.73-11.93.03-.24.26-.41.51-.37.05,0,.11.03.15.05,4.78,2.67,9.97,3.11,15.55,1.31.18-.06.37.03.43.22.03.08.02.17,0,.25h-.01Z"/><path class="cls-1" d="M306.52,352.79c7.61.3,13.5-2.87,17.69-9.5.08-.13.27-.18.41-.09.03.02.05.04.07.06l4.42,5.54c.11.14.13.35.04.51-4.29,7.68-14.33,11.34-21.61,5.63-.56-.43-1-.96-1.35-1.59-.1-.19-.04-.41.14-.52.06-.03.13-.05.2-.04h-.01Z"/><path class="cls-1" d="M343.65,353.52c-.07,4.25-1.89,7.49-5.43,9.73-.37.24-.83.3-1.24.19-3.24-.88-5.54-2.87-6.89-5.97-1.04-2.35.71-4.78,2.2-6.28.32-.33.8-.42,1.23-.25,3.3,1.37,6.44,2,9.4,1.88.38-.02.7.27.72.65v.05h.01Z"/><path class="cls-1" d="M347.26,353.02c3.68,3.51,8.13,5.27,13.35,5.29.14,0,.25.11.25.26,0,.03,0,.05-.01.08-2.78,7.68-10.87,13.44-18.58,7.85-.34-.25-.41-.71-.17-1.05.02-.03.05-.06.07-.08,3.41-3.43,4.95-7.46,4.62-12.12-.01-.15.1-.28.26-.29.07,0,.15.02.21.07h0Z"/><path class="cls-1" d="M314.7,362.49c.1.02.17.12.14.22,0,.04-.03.08-.06.11-4.75,4.21-10.23,5.64-16.43,4.32-4.65-.99-7.91-3.81-9.77-8.44-.11-.3.03-.63.33-.74.05-.02.11-.03.18-.04,3.43-.19,6.77-1.48,10.06-3.89.28-.22.69-.15.9.13.01.02.03.04.04.06,3.32,5.67,8.21,7.09,14.61,8.27h0Z"/><path class="cls-1" d="M312.02,368.36c.76-.74,3.18-1.7,4.45-2.71,3.02-2.45,5.29-4.97,8.84-7.38.26-.17.59-.09.75.15.02.03.04.07.05.1,2.05,5.47,5.89,7.96,11.52,7.47.18-.01.32.11.33.29,0,.07-.01.13-.05.2-5.72,8.58-13.38,10.35-23,5.35-.28-.14-1.24-1.04-2.9-2.7-.21-.21-.22-.55,0-.76h.01Z"/><path class="cls-1" d="M360.66,388.65c1.14,1.64,2.58,3.04,4.33,4.2.13.08.18.26.09.39-.06.1-.19.15-.31.13-5.62-1.02-9.93-3.97-12.92-8.85-2.37-3.45-4.3-7.23-5.77-11.37-.08-.22.03-.46.26-.55.04-.01.08-.02.12-.03,5.81-.32,11.13-1.3,14.53-6.4.03-.04.06-.09.07-.13l1.68-4.13c.07-.2.3-.29.5-.21.05.02.09.05.12.08l3.99,3.99c.21.21.21.54,0,.74-.06.06-.13.1-.21.13-4.83,1.54-7.2,4.55-8.83,9.06-1.61,4.45-.84,8.76,2.32,12.94h.01Z"/><path class="cls-1" d="M298.87,387.31c-2.96,3.05-6.49,4.92-10.58,5.59-.14.02-.29-.08-.31-.23-.01-.08.01-.17.06-.23,5.22-5.92,9.34-10.97,5.55-19.16-1.28-2.79-3.46-4.78-6.51-5.98l-1.6-.73c-.25-.11-.35-.4-.24-.65,0-.02.02-.03.02-.05l1.7-2.81c.14-.24.46-.32.7-.17.07.04.13.11.19.19,3.86,6.92,13,9.14,20.06,7,.24-.07.5-.03.69.12l5.87,4.55c.31.24.41.67.24,1.03-2.27,4.45-6.28,4.85-11.09,5.46-.68.08-1.26.53-1.53,1.16-.74,1.71-1.82,3.35-3.23,4.91h0Z"/><path class="cls-1" d="M329.49,392.16l-3.81,6.27c-.93-3.21-2.13-5.77-3.58-7.67-1.53-1.99-3.41-3.94-5.64-5.85-.53-.45-1.01-1.3-1.44-2.56-.11-.33-.05-.69.17-.96l3.23-4.17c.26-.33.69-.48,1.09-.37,6.95,1.92,12.97-.05,18.04-5.92.46-.55,1.28-.61,1.83-.14.08.07.15.14.22.24l2.89,4.01c.64.89.65,2.07.04,2.97-2.15,3.18-3.55,4.96-4.19,5.35-3.62,2.17-6.56,5.1-8.82,8.79h-.01Z"/><path class="cls-1" d="M702.25,137.16h59.89c27.29,0,47.11,3.88,59.44,11.65,12.33,7.77,18.49,20.12,18.49,37.06,0,11.5-2.7,20.93-8.1,28.3-5.4,7.38-12.57,11.8-21.53,13.29v1.32c12.2,2.72,21,7.81,26.4,15.27,5.4,7.46,8.1,17.38,8.1,29.75,0,17.55-6.35,31.25-19.02,41.07-12.68,9.83-29.9,14.75-51.67,14.75h-72.01v-192.46ZM743.06,213.38h23.69c11.05,0,19.07-1.71,24.02-5.14,4.95-3.43,7.44-9.08,7.44-16.99,0-7.37-2.7-12.66-8.1-15.86-5.4-3.2-13.93-4.81-25.6-4.81h-21.45v42.78h0ZM743.06,245.76v50.15h26.59c11.24,0,19.52-2.15,24.88-6.45s8.03-10.88,8.03-19.75c0-15.97-11.41-23.96-34.23-23.96h-25.27Z"/><path class="cls-1" d="M935.78,255.77v73.85h-40.81v-192.46h56.07c26.15,0,45.51,4.76,58.05,14.28s18.82,23.98,18.82,43.37c0,11.32-3.12,21.39-9.35,30.21s-15.06,15.73-26.46,20.73c28.96,43.27,47.83,71.22,56.61,83.85h-45.28l-45.94-73.85h-21.72,0ZM935.78,222.59h13.17c12.9,0,22.42-2.15,28.56-6.45,6.14-4.3,9.21-11.06,9.21-20.28s-3.14-15.62-9.41-19.48-15.99-5.79-29.16-5.79h-12.37v52h0Z"/><path class="cls-1" d="M1202.36,329.61l-13.95-45.81h-70.16l-13.95,45.81h-43.97l67.92-193.24h49.89l68.19,193.24h-43.97,0ZM1178.67,249.58c-12.9-41.51-20.16-64.98-21.78-70.43-1.63-5.44-2.79-9.74-3.49-12.9-2.9,11.24-11.19,39.01-24.88,83.33h50.15Z"/><path class="cls-1" d="M1452.87,329.61h-51.86l-83.72-145.59h-1.19c1.66,25.71,2.5,44.05,2.5,55.02v90.57h-36.47v-192.46h51.47l83.59,144.15h.92c-1.32-25.01-1.97-42.69-1.97-53.05v-91.1h36.73v192.46Z"/><path class="cls-1" d="M1672.58,231.54c0,31.68-9.02,55.95-27.06,72.8-18.04,16.85-44.08,25.27-78.12,25.27h-54.49v-192.46h60.42c31.41,0,55.82,8.3,73.19,24.88,17.38,16.58,26.07,39.76,26.07,69.51h0ZM1630.2,232.59c0-41.34-18.25-62-54.76-62h-21.72v125.32h17.51c39.32,0,58.97-21.1,58.97-63.32h0Z"/><path class="cls-2" d="M1833.59,329.61h-107.29v-192.46h107.29v19.87h-84.9v62.01h79.78v19.74h-79.78v70.82h84.9v20.01h0Z"/><path class="cls-2" d="M2015.92,329.61h-25.41l-51.73-84.65-52.66,84.65h-23.69l63.98-100.57-59.63-91.88h24.74l47.79,76.22,48.18-76.22h23.83l-59.63,91.1,64.24,101.36h0Z"/><path class="cls-2" d="M2177.05,193.24c0,19.48-6.65,34.47-19.95,44.95-13.3,10.48-32.32,15.73-57.06,15.73h-22.64v75.69h-22.38v-192.46h49.89c48.09,0,72.14,18.69,72.14,56.07v.02ZM2077.4,234.71h20.14c19.83,0,34.18-3.2,43.05-9.61,8.86-6.41,13.3-16.68,13.3-30.8,0-12.72-4.17-22.2-12.51-28.43-8.34-6.23-21.33-9.35-38.96-9.35h-25.01v78.2h-.01Z"/><path class="cls-2" d="M2336.21,329.61h-107.29v-192.46h107.29v19.87h-84.9v62.01h79.78v19.74h-79.78v70.82h84.9v20.01h0Z"/><path class="cls-2" d="M2412.83,249.58v80.03h-22.38v-192.46h52.78c23.61,0,41.05,4.52,52.33,13.56,11.28,9.04,16.91,22.64,16.91,40.81,0,25.45-12.9,42.65-38.71,51.61l52.27,86.48h-26.46l-46.6-80.03h-40.15.01ZM2412.83,230.36h30.67c15.8,0,27.38-3.14,34.75-9.41,7.37-6.27,11.06-15.68,11.06-28.23s-3.76-21.9-11.26-27.51c-7.5-5.61-19.54-8.42-36.14-8.42h-29.09v73.58h0Z"/><path class="cls-2" d="M2627.94,329.61h-22.38v-172.57h-60.94v-19.87h144.28v19.87h-60.94v172.57h-.01Z"/><path class="cls-2" d="M2838.04,278.41c0,16.93-6.14,30.14-18.43,39.62-12.29,9.47-28.96,14.22-50.03,14.22-22.82,0-40.37-2.94-52.66-8.82v-21.59c7.89,3.33,16.5,5.96,25.8,7.89s18.51,2.9,27.64,2.9c14.92,0,26.15-2.83,33.7-8.49,7.54-5.65,11.32-13.54,11.32-23.63,0-6.67-1.34-12.14-4.01-16.39-2.67-4.25-7.15-8.18-13.42-11.78s-15.82-7.68-28.64-12.24c-17.9-6.41-30.69-13.99-38.38-22.77-7.68-8.77-11.52-20.23-11.52-34.36,0-14.83,5.57-26.63,16.72-35.41,11.14-8.77,25.89-13.17,44.23-13.17s36.73,3.51,52.78,10.54l-6.98,19.48c-15.88-6.67-31.33-10-46.34-10-11.85,0-21.1,2.55-27.78,7.64-6.67,5.09-10.01,12.16-10.01,21.2,0,6.67,1.23,12.14,3.68,16.39,2.46,4.26,6.6,8.16,12.44,11.71,5.83,3.55,14.77,7.48,26.79,11.78,20.18,7.19,34.07,14.92,41.67,23.17,7.58,8.26,11.38,18.96,11.38,32.12h.03Z"/></svg>