<?xml version="1.0" encoding="UTF-8"?><svg id="Layer_2" xmlns="http://www.w3.org/2000/svg" xmlns:xlink="http://www.w3.org/1999/xlink" viewBox="0 0 908.29 176.3"><defs><style>.cls-1{fill:#628acf;}.cls-2{fill:url(#linear-gradient);}.cls-3{fill:#fff;}</style><linearGradient id="linear-gradient" x1="0" y1="87.14" x2="174.28" y2="87.14" gradientUnits="userSpaceOnUse"><stop offset="0" stop-color="#d08c00"/><stop offset="1" stop-color="#628acf"/></linearGradient></defs><g id="graphics"><path class="cls-3" d="M211.67,127.23c2.65,1.08,5.58,1.94,8.77,2.58,3.19.64,6.36.96,9.51.96,2.26,0,4.42-.24,6.48-.74,2.06-.49,3.85-1.23,5.38-2.21,1.52-.98,2.75-2.19,3.68-3.61.93-1.42,1.4-3.02,1.4-4.79,0-1.96-.37-3.58-1.11-4.86-.74-1.28-1.72-2.36-2.95-3.24-1.23-.88-2.65-1.64-4.27-2.28-1.62-.64-3.37-1.25-5.23-1.84l-5.16-1.92c-6.29-2.36-10.86-5.01-13.71-7.96-2.85-2.95-4.27-6.93-4.27-11.94,0-6.68,2.38-11.99,7.15-15.92,4.76-3.93,11.77-5.89,21-5.89,3.83,0,7.59.37,11.27,1.11,3.68.74,6.9,1.6,9.65,2.58-.2,1.97-.57,3.93-1.11,5.89-.54,1.97-1.2,3.78-1.99,5.45-2.16-.79-4.74-1.55-7.74-2.28-3-.74-6.21-1.1-9.65-1.1-3.64,0-6.85.64-9.65,1.92-2.8,1.28-4.2,3.54-4.2,6.78,0,1.67.34,3.09,1.03,4.27.69,1.18,1.62,2.19,2.8,3.02,1.18.84,2.53,1.55,4.05,2.14,1.52.59,3.17,1.18,4.94,1.77l6.48,2.21c2.36.79,4.59,1.72,6.71,2.8,2.11,1.08,3.93,2.43,5.45,4.05,1.52,1.62,2.75,3.59,3.68,5.9.93,2.31,1.4,5.08,1.4,8.33,0,3.64-.74,6.95-2.21,9.95-1.47,3-3.56,5.55-6.26,7.66-2.7,2.11-5.97,3.76-9.8,4.94s-8.06,1.77-12.67,1.77-8.84-.32-12.38-.96c-3.54-.64-6.83-1.5-9.87-2.58.2-1.96.61-3.95,1.25-5.97.64-2.01,1.35-4,2.14-5.97Z"/><path class="cls-3" d="M314.76,135.18c-.15-2.06-.57-4.08-1.25-6.04-1.18.29-2.5.57-3.98.81-1.47.25-3.05.37-4.72.37-2.16,0-3.96-.22-5.38-.66-1.42-.44-2.56-1.33-3.39-2.65-.84-1.33-1.43-3.22-1.77-5.67-.35-2.45-.52-5.75-.52-9.87v-25.94h0v-8.53h11.5l.59-2.06-25.35-28.3h-1.18v18.72h-19.16c-.39,1.67-.59,3.54-.59,5.6,0,1.08.05,2.11.15,3.09.1.98.25,1.97.44,2.95h19.16v8.54h0v34.34c0,7.96,1.99,13.66,5.97,17.09,3.98,3.44,9.5,5.16,16.58,5.16,2.46,0,4.76-.12,6.93-.37,2.16-.25,4.22-.62,6.19-1.11,0-1.57-.07-3.39-.22-5.45Z"/><path class="cls-3" d="M365.67,91.12c0-5.8-1.47-9.82-4.42-12.08-2.95-2.26-7.22-3.39-12.82-3.39-3.44,0-6.66.27-9.65.81-3,.54-5.92,1.25-8.77,2.14-1.87-3.24-2.8-7.12-2.8-11.64,3.34-1.08,7.02-1.92,11.05-2.51,4.03-.59,7.91-.88,11.64-.88,9.82,0,17.29,2.24,22.4,6.71,5.11,4.47,7.66,11.62,7.66,21.44v47.31c-3.44.79-7.62,1.6-12.53,2.43-4.91.83-9.93,1.25-15.03,1.25-4.81,0-9.16-.44-13.04-1.33-3.88-.88-7.17-2.31-9.88-4.27-2.7-1.96-4.79-4.47-6.26-7.52-1.47-3.04-2.21-6.73-2.21-11.05s.86-7.93,2.58-11.13c1.72-3.19,4.05-5.84,7-7.96,2.95-2.11,6.34-3.68,10.17-4.72s7.86-1.55,12.08-1.55c3.14,0,5.72.07,7.74.22,2.01.15,3.71.32,5.08.52v-2.8ZM365.67,105.41c-1.47-.2-3.34-.39-5.6-.59-2.26-.2-4.18-.29-5.75-.29-6.09,0-10.73,1.13-13.93,3.39-3.19,2.26-4.79,5.7-4.79,10.32,0,2.95.54,5.26,1.62,6.93,1.08,1.67,2.43,2.95,4.05,3.83,1.62.88,3.41,1.43,5.38,1.62,1.96.2,3.83.29,5.6.29,2.26,0,4.59-.12,7-.37,2.41-.24,4.54-.61,6.41-1.11v-24.02Z"/><path class="cls-3" d="M398.39,65.33c1.08-.2,2.11-.34,3.09-.44.98-.1,2.01-.15,3.09-.15s2.16.05,3.24.15c1.08.1,2.06.25,2.95.44.29,1.47.59,3.42.88,5.82.29,2.41.44,4.45.44,6.12,2.06-3.34,4.79-6.24,8.18-8.69,3.39-2.46,7.74-3.68,13.04-3.68.79,0,1.6.03,2.43.07.83.05,1.55.12,2.14.22.2.88.34,1.82.44,2.8.1.98.15,2.01.15,3.09,0,1.18-.07,2.41-.22,3.68-.15,1.28-.32,2.5-.52,3.68-.79-.2-1.6-.29-2.43-.29h-1.99c-2.65,0-5.18.37-7.59,1.11-2.41.74-4.57,2.04-6.48,3.91-1.92,1.87-3.44,4.42-4.57,7.66-1.13,3.24-1.69,7.42-1.69,12.53v37.58c-1.08.2-2.28.34-3.61.44-1.33.1-2.53.15-3.61.15s-2.28-.05-3.61-.15c-1.33-.1-2.58-.25-3.76-.44v-75.6Z"/><path class="cls-3" d="M452.47,76.97h-11.5l-.59-2.06,25.35-28.3h1.18v18.72h19.16c.39,1.67.59,3.54.59,5.6,0,1.08-.05,2.11-.15,3.09-.1.98-.25,1.97-.44,2.95h-19.16v34.49c0,4.13.17,7.42.52,9.87.34,2.46.93,4.35,1.77,5.67.83,1.33,1.96,2.21,3.39,2.65,1.42.44,3.22.66,5.38.66,1.67,0,3.24-.12,4.72-.37,1.47-.24,2.8-.52,3.98-.81.69,1.97,1.11,3.98,1.25,6.04.15,2.06.22,3.88.22,5.45-1.97.49-4.03.86-6.19,1.11-2.16.24-4.47.37-6.93.37-7.07,0-12.6-1.72-16.58-5.16-3.98-3.44-5.97-9.14-5.97-17.09v-42.89Z"/><path class="cls-3" d="M498.01,65.33c1.08-.2,2.31-.34,3.68-.44,1.38-.1,2.55-.15,3.54-.15,1.08,0,2.31.05,3.68.15,1.37.1,2.6.25,3.68.44v41.41c0,4.72.44,8.62,1.33,11.72.88,3.09,2.21,5.53,3.98,7.29s3.93,3,6.48,3.68c2.55.69,5.5,1.03,8.84,1.03,5.01,0,9.28-.54,12.82-1.62v-63.52c1.08-.2,2.28-.34,3.61-.44,1.33-.1,2.53-.15,3.61-.15s2.28.05,3.61.15c1.33.1,2.53.25,3.61.44v73.24c-3.44.98-7.54,1.92-12.31,2.8-4.77.88-9.7,1.33-14.81,1.33-4.81,0-9.36-.42-13.63-1.25-4.27-.83-8.03-2.53-11.27-5.08-3.24-2.55-5.8-6.14-7.66-10.76-1.87-4.62-2.8-10.71-2.8-18.27v-42Z"/><path class="cls-3" d="M579.8,65.33c.98-.2,1.99-.34,3.02-.44,1.03-.1,2.09-.15,3.17-.15.98,0,2.01.05,3.09.15,1.08.1,2.11.25,3.09.44.1.2.22.81.37,1.84.15,1.03.29,2.14.44,3.32.15,1.18.29,2.31.44,3.39.15,1.08.22,1.77.22,2.06.98-1.57,2.16-3.09,3.54-4.57,1.38-1.47,3.02-2.8,4.94-3.98,1.92-1.18,4.08-2.11,6.48-2.8,2.41-.69,5.08-1.03,8.03-1.03,4.42,0,8.52.74,12.31,2.21,3.78,1.47,7.02,3.76,9.73,6.85,2.7,3.09,4.81,7.03,6.34,11.79,1.52,4.77,2.28,10.39,2.28,16.87,0,12.97-3.51,23.12-10.54,30.43-7.03,7.32-16.97,10.98-29.84,10.98-2.16,0-4.37-.15-6.63-.44-2.26-.29-4.23-.69-5.89-1.18v34.63c-1.18.2-2.43.34-3.76.44-1.33.1-2.53.15-3.61.15s-2.28-.05-3.61-.15c-1.33-.1-2.53-.25-3.61-.44v-110.38ZM594.39,128.55c1.87.69,3.78,1.18,5.75,1.47,1.96.29,4.52.44,7.66.44,3.54,0,6.78-.56,9.73-1.69,2.95-1.13,5.48-2.87,7.59-5.23,2.11-2.36,3.78-5.33,5.01-8.92,1.23-3.59,1.84-7.83,1.84-12.75,0-7.86-1.45-14.1-4.35-18.72-2.9-4.62-7.64-6.93-14.22-6.93-2.46,0-4.81.44-7.07,1.33-2.26.88-4.27,2.21-6.04,3.98s-3.19,4-4.27,6.71c-1.08,2.7-1.62,5.92-1.62,9.65v30.65Z"/><path class="cls-1" d="M663.06,32.91c1.08-.2,2.28-.34,3.61-.44,1.33-.1,2.53-.15,3.61-.15s2.29.05,3.61.15c1.33.1,2.53.25,3.61.44v85.18c0,2.75.24,4.91.74,6.48.49,1.57,1.15,2.78,1.99,3.61.83.84,1.82,1.38,2.95,1.62,1.13.25,2.33.37,3.61.37.88,0,1.89-.05,3.02-.15,1.13-.1,2.09-.24,2.87-.44.88,3.44,1.33,7.17,1.33,11.2-1.38.49-3.05.81-5.01.96-1.97.15-3.78.22-5.45.22-2.85,0-5.5-.34-7.96-1.03-2.46-.69-4.62-1.82-6.48-3.39-1.87-1.57-3.34-3.68-4.42-6.34-1.08-2.65-1.62-5.94-1.62-9.87V32.91Z"/><path class="cls-1" d="M743.67,91.12c0-5.8-1.47-9.82-4.42-12.08-2.95-2.26-7.22-3.39-12.82-3.39-3.44,0-6.66.27-9.65.81-3,.54-5.92,1.25-8.77,2.14-1.87-3.24-2.8-7.12-2.8-11.64,3.34-1.08,7.02-1.92,11.05-2.51,4.03-.59,7.91-.88,11.64-.88,9.82,0,17.29,2.24,22.4,6.71,5.11,4.47,7.66,11.62,7.66,21.44v47.31c-3.44.79-7.62,1.6-12.53,2.43-4.91.83-9.92,1.25-15.03,1.25-4.81,0-9.16-.44-13.04-1.33-3.88-.88-7.17-2.31-9.87-4.27-2.7-1.96-4.79-4.47-6.26-7.52-1.47-3.04-2.21-6.73-2.21-11.05s.86-7.93,2.58-11.13c1.72-3.19,4.05-5.84,7-7.96,2.95-2.11,6.34-3.68,10.17-4.72,3.83-1.03,7.86-1.55,12.08-1.55,3.14,0,5.72.07,7.74.22,2.01.15,3.71.32,5.08.52v-2.8ZM743.67,105.41c-1.47-.2-3.34-.39-5.6-.59-2.26-.2-4.18-.29-5.75-.29-6.09,0-10.74,1.13-13.93,3.39-3.19,2.26-4.79,5.7-4.79,10.32,0,2.95.54,5.26,1.62,6.93,1.08,1.67,2.43,2.95,4.05,3.83,1.62.88,3.41,1.43,5.38,1.62,1.96.2,3.83.29,5.6.29,2.26,0,4.59-.12,7-.37,2.41-.24,4.54-.61,6.41-1.11v-24.02Z"/><path class="cls-1" d="M776.24,32.91c1.08-.2,2.28-.34,3.61-.44,1.33-.1,2.53-.15,3.61-.15s2.31.05,3.68.15c1.38.1,2.6.25,3.68.44v41.56c1.77-2.95,4.52-5.5,8.25-7.66,3.73-2.16,8.25-3.24,13.56-3.24,4.52,0,8.7.74,12.53,2.21,3.83,1.47,7.12,3.76,9.87,6.85,2.75,3.09,4.89,7.03,6.41,11.79,1.52,4.77,2.28,10.39,2.28,16.87,0,12.97-3.66,23.12-10.98,30.43-7.32,7.32-17.86,10.98-31.61,10.98-4.32,0-8.77-.42-13.34-1.25-4.57-.83-8.43-1.79-11.57-2.87V32.91ZM790.83,128.7c1.77.59,3.66,1.01,5.67,1.25,2.01.25,4.1.37,6.26.37,3.63,0,7-.56,10.1-1.7,3.09-1.13,5.77-2.85,8.03-5.16,2.26-2.31,4.05-5.25,5.38-8.84,1.33-3.59,1.99-7.83,1.99-12.75,0-8.15-1.43-14.49-4.27-19.01-2.85-4.52-7.57-6.78-14.15-6.78-2.26,0-4.5.37-6.71,1.11-2.21.74-4.25,1.92-6.12,3.54-1.87,1.62-3.37,3.78-4.5,6.48-1.13,2.7-1.69,5.97-1.69,9.8v31.69Z"/><path class="cls-1" d="M858.48,127.23c2.65,1.08,5.57,1.94,8.77,2.58,3.19.64,6.36.96,9.5.96,2.26,0,4.42-.24,6.48-.74,2.06-.49,3.85-1.23,5.38-2.21,1.52-.98,2.75-2.19,3.68-3.61.93-1.42,1.4-3.02,1.4-4.79,0-1.96-.37-3.58-1.11-4.86-.74-1.28-1.72-2.36-2.95-3.24-1.23-.88-2.65-1.64-4.27-2.28-1.62-.64-3.37-1.25-5.23-1.84l-5.16-1.92c-6.29-2.36-10.86-5.01-13.71-7.96-2.85-2.95-4.27-6.93-4.27-11.94,0-6.68,2.38-11.99,7.15-15.92,4.76-3.93,11.76-5.89,21-5.89,3.83,0,7.59.37,11.27,1.11,3.68.74,6.9,1.6,9.65,2.58-.2,1.97-.57,3.93-1.11,5.89-.54,1.97-1.2,3.78-1.99,5.45-2.16-.79-4.74-1.55-7.74-2.28-3-.74-6.21-1.1-9.65-1.1-3.64,0-6.85.64-9.65,1.92-2.8,1.28-4.2,3.54-4.2,6.78,0,1.67.34,3.09,1.03,4.27.69,1.18,1.62,2.19,2.8,3.02,1.18.84,2.53,1.55,4.05,2.14,1.52.59,3.17,1.18,4.94,1.77l6.48,2.21c2.36.79,4.59,1.72,6.71,2.8,2.11,1.08,3.93,2.43,5.45,4.05,1.52,1.62,2.75,3.59,3.68,5.9.93,2.31,1.4,5.08,1.4,8.33,0,3.64-.74,6.95-2.21,9.95-1.47,3-3.56,5.55-6.26,7.66-2.7,2.11-5.97,3.76-9.8,4.94s-8.06,1.77-12.67,1.77-8.84-.32-12.38-.96c-3.54-.64-6.83-1.5-9.87-2.58.2-1.96.61-3.95,1.25-5.97.64-2.01,1.35-4,2.14-5.97Z"/><line class="cls-3" x1="275.78" y1="65.36" x2="267.23" y2="68.42"/><path class="cls-2" d="M148.76,25.52C114.73-8.51,59.55-8.51,25.52,25.52.27,50.78-6.24,87.67,5.98,118.93l6.21-6.21c8.51-8.51,20.94-11.57,32.43-7.97,3.67,1.15.47.17,18.52,5.66,14.45,3.33,29.15-.34,42.12-13.31,12.27-12.27,13.16-23.6,14.03-41.88-19.79.58-30.14,1.82-43.77,15.45-7.63,7.63-12.1,17.5-12.97,27.83l-14.63-4.26c2-14.64,8.38-25.62,18.43-35.68,19.98-19.98,40.56-17.78,68.81-19-1.87,34.8-.27,49.19-20.93,69.85-12.4,12.4-29.37,18.42-46.36,16.94-20.49-4.68-14.6-3.13-27.75-7.24-6.13-1.92-12.76-.29-17.3,4.25l-9.75,9.75c6.83,10.99,16.38,20.8,28.09,28.09l9.3-9.3c4.13-4.13,5.84-9.98,4.68-15.61l15.41,2.99c.24,15.33-9.11,22.93-15.21,29.02,31.26,12.22,68.15,5.72,93.41-19.54,34.03-34.03,34.03-89.21,0-123.24Z"/></g></svg>